 0
SECTION
 2
ENTITIES
  0
POLYLINE
 8
Layer0
 66
     1
70
    8
 10
0.0
 20
 0.0
 30
0.0
  0
VERTEX
  8
MY3DLAYER
10
364.488940299449
20
-1.32538424679751e-013
30
0.0
 70
     32
  0
VERTEX
  8
MY3DLAYER
10
286.488940299448
20
0.0
30
0.0
 70
     32
  0
VERTEX
  8
MY3DLAYER
10
286.488940299449
20
99.9999999999999
30
0.0
 70
     32
  0
VERTEX
  8
MY3DLAYER
10
297.988940299449
20
99.9999999999999
30
0.0
 70
     32
  0
VERTEX
  8
MY3DLAYER
10
297.988940299448
20
35.0000000000003
30
0.0
 70
     32
  0
VERTEX
  8
MY3DLAYER
10
352.988940299449
20
34.9999999999996
30
0.0
 70
     32
  0
VERTEX
  8
MY3DLAYER
10
352.988940299448
20
99.9999999999999
30
0.0
 70
     32
  0
VERTEX
  8
MY3DLAYER
10
364.488940299448
20
99.9999999999998
30
0.0
 70
     32
  0
VERTEX
  8
MY3DLAYER
10
364.488940299449
20
-1.32538424679751e-013
30
0.0
 70
     32
  0
SEQEND
  0
POLYLINE
 8
Layer0
 66
     1
70
    8
 10
0.0
 20
 0.0
 30
0.0
  0
VERTEX
  8
MY3DLAYER
10
302.988940299448
20
5.5
30
0.0
 70
     32
  0
VERTEX
  8
MY3DLAYER
10
302.600711731794
20
5.44888873943345
30
0.0
 70
     32
  0
VERTEX
  8
MY3DLAYER
10
302.238940299448
20
5.29903810567668
30
0.0
 70
     32
  0
VERTEX
  8
MY3DLAYER
10
301.928280127668
20
5.06066017177964
30
0.0
 70
     32
  0
VERTEX
  8
MY3DLAYER
10
301.689902193772
20
4.75
30
0.0
 70
     32
  0
VERTEX
  8
MY3DLAYER
10
301.540051560015
20
4.38822856765369
30
0.0
 70
     32
  0
VERTEX
  8
MY3DLAYER
10
301.488940299448
20
4.00000000000003
30
0.0
 70
     32
  0
VERTEX
  8
MY3DLAYER
10
301.540051560015
20
3.61177143234621
30
0.0
 70
     32
  0
VERTEX
  8
MY3DLAYER
10
301.689902193772
20
3.24999999999987
30
0.0
 70
     32
  0
VERTEX
  8
MY3DLAYER
10
301.928280127668
20
2.93933982822015
30
0.0
 70
     32
  0
VERTEX
  8
MY3DLAYER
10
302.238940299448
20
2.7009618943233
30
0.0
 70
     32
  0
VERTEX
  8
MY3DLAYER
10
302.600711731795
20
2.55111126056635
30
0.0
 70
     32
  0
VERTEX
  8
MY3DLAYER
10
302.988940299449
20
2.50000000000009
30
0.0
 70
     32
  0
VERTEX
  8
MY3DLAYER
10
303.377168867102
20
2.5511112605665
30
0.0
 70
     32
  0
VERTEX
  8
MY3DLAYER
10
303.738940299448
20
2.70096189432348
30
0.0
 70
     32
  0
VERTEX
  8
MY3DLAYER
10
304.049600471228
20
2.93933982822017
30
0.0
 70
     32
  0
VERTEX
  8
MY3DLAYER
10
304.287978405125
20
3.25000000000019
30
0.0
 70
     32
  0
VERTEX
  8
MY3DLAYER
10
304.437829038882
20
3.61177143234624
30
0.0
 70
     32
  0
VERTEX
  8
MY3DLAYER
10
304.488940299448
20
4.0
30
0.0
 70
     32
  0
VERTEX
  8
MY3DLAYER
10
304.437829038882
20
4.38822856765385
30
0.0
 70
     32
  0
VERTEX
  8
MY3DLAYER
10
304.287978405125
20
4.75000000000009
30
0.0
 70
     32
  0
VERTEX
  8
MY3DLAYER
10
304.049600471228
20
5.06066017177997
30
0.0
 70
     32
  0
VERTEX
  8
MY3DLAYER
10
303.738940299448
20
5.2990381056767
30
0.0
 70
     32
  0
VERTEX
  8
MY3DLAYER
10
303.377168867102
20
5.44888873943365
30
0.0
 70
     32
  0
VERTEX
  8
MY3DLAYER
10
302.988940299448
20
5.5
30
0.0
 70
     32
  0
SEQEND
  0
POLYLINE
 8
Layer0
 66
     1
70
    8
 10
0.0
 20
 0.0
 30
0.0
  0
VERTEX
  8
MY3DLAYER
10
347.988940299448
20
5.49999999999993
30
0.0
 70
     32
  0
VERTEX
  8
MY3DLAYER
10
347.600711731794
20
5.44888873943348
30
0.0
 70
     32
  0
VERTEX
  8
MY3DLAYER
10
347.238940299448
20
5.2990381056767
30
0.0
 70
     32
  0
VERTEX
  8
MY3DLAYER
10
346.928280127668
20
5.0606601717797
30
0.0
 70
     32
  0
VERTEX
  8
MY3DLAYER
10
346.689902193772
20
4.75000000000009
30
0.0
 70
     32
  0
VERTEX
  8
MY3DLAYER
10
346.540051560015
20
4.38822856765364
30
0.0
 70
     32
  0
VERTEX
  8
MY3DLAYER
10
346.488940299448
20
4.00000000000007
30
0.0
 70
     32
  0
VERTEX
  8
MY3DLAYER
10
346.540051560015
20
3.61177143234615
30
0.0
 70
     32
  0
VERTEX
  8
MY3DLAYER
10
346.689902193772
20
3.24999999999998
30
0.0
 70
     32
  0
VERTEX
  8
MY3DLAYER
10
346.928280127668
20
2.93933982822017
30
0.0
 70
     32
  0
VERTEX
  8
MY3DLAYER
10
347.238940299448
20
2.70096189432327
30
0.0
 70
     32
  0
VERTEX
  8
MY3DLAYER
10
347.600711731794
20
2.5511112605663
30
0.0
 70
     32
  0
VERTEX
  8
MY3DLAYER
10
347.988940299448
20
2.50000000000015
30
0.0
 70
     32
  0
VERTEX
  8
MY3DLAYER
10
348.377168867102
20
2.55111126056632
30
0.0
 70
     32
  0
VERTEX
  8
MY3DLAYER
10
348.738940299448
20
2.70096189432323
30
0.0
 70
     32
  0
VERTEX
  8
MY3DLAYER
10
349.049600471228
20
2.93933982822021
30
0.0
 70
     32
  0
VERTEX
  8
MY3DLAYER
10
349.287978405125
20
3.25000000000007
30
0.0
 70
     32
  0
VERTEX
  8
MY3DLAYER
10
349.437829038882
20
3.61177143234626
30
0.0
 70
     32
  0
VERTEX
  8
MY3DLAYER
10
349.488940299448
20
3.99999999999999
30
0.0
 70
     32
  0
VERTEX
  8
MY3DLAYER
10
349.437829038882
20
4.38822856765377
30
0.0
 70
     32
  0
VERTEX
  8
MY3DLAYER
10
349.287978405125
20
4.75000000000006
30
0.0
 70
     32
  0
VERTEX
  8
MY3DLAYER
10
349.049600471228
20
5.06066017177978
30
0.0
 70
     32
  0
VERTEX
  8
MY3DLAYER
10
348.738940299448
20
5.29903810567697
30
0.0
 70
     32
  0
VERTEX
  8
MY3DLAYER
10
348.377168867102
20
5.44888873943371
30
0.0
 70
     32
  0
VERTEX
  8
MY3DLAYER
10
347.988940299448
20
5.49999999999993
30
0.0
 70
     32
  0
SEQEND
  0
POLYLINE
 8
Layer0
 66
     1
70
    8
 10
0.0
 20
 0.0
 30
0.0
  0
VERTEX
  8
MY3DLAYER
10
371.488940299448
20
1.32538424679751e-013
30
0.0
 70
     32
  0
VERTEX
  8
MY3DLAYER
10
371.488940299449
20
100.0
30
0.0
 70
     32
  0
VERTEX
  8
MY3DLAYER
10
449.488940299449
20
100.0
30
0.0
 70
     32
  0
VERTEX
  8
MY3DLAYER
10
449.488940299449
20
0.0
30
0.0
 70
     32
  0
VERTEX
  8
MY3DLAYER
10
371.488940299448
20
1.32538424679751e-013
30
0.0
 70
     32
  0
SEQEND
  0
POLYLINE
 8
Layer0
 66
     1
70
    8
 10
0.0
 20
 0.0
 30
0.0
  0
VERTEX
  8
MY3DLAYER
10
387.988940299448
20
5.50000000000013
30
0.0
 70
     32
  0
VERTEX
  8
MY3DLAYER
10
387.600711731794
20
5.44888873943358
30
0.0
 70
     32
  0
VERTEX
  8
MY3DLAYER
10
387.238940299448
20
5.29903810567681
30
0.0
 70
     32
  0
VERTEX
  8
MY3DLAYER
10
386.928280127668
20
5.06066017177977
30
0.0
 70
     32
  0
VERTEX
  8
MY3DLAYER
10
386.689902193772
20
4.75000000000014
30
0.0
 70
     32
  0
VERTEX
  8
MY3DLAYER
10
386.540051560015
20
4.38822856765383
30
0.0
 70
     32
  0
VERTEX
  8
MY3DLAYER
10
386.488940299448
20
4.00000000000016
30
0.0
 70
     32
  0
VERTEX
  8
MY3DLAYER
10
386.540051560015
20
3.61177143234635
30
0.0
 70
     32
  0
VERTEX
  8
MY3DLAYER
10
386.689902193772
20
3.25
30
0.0
 70
     32
  0
VERTEX
  8
MY3DLAYER
10
386.928280127668
20
2.93933982822028
30
0.0
 70
     32
  0
VERTEX
  8
MY3DLAYER
10
387.238940299448
20
2.70096189432343
30
0.0
 70
     32
  0
VERTEX
  8
MY3DLAYER
10
387.600711731794
20
2.55111126056648
30
0.0
 70
     32
  0
VERTEX
  8
MY3DLAYER
10
387.988940299449
20
2.50000000000022
30
0.0
 70
     32
  0
VERTEX
  8
MY3DLAYER
10
388.377168867102
20
2.55111126056664
30
0.0
 70
     32
  0
VERTEX
  8
MY3DLAYER
10
388.738940299448
20
2.70096189432361
30
0.0
 70
     32
  0
VERTEX
  8
MY3DLAYER
10
389.049600471228
20
2.9393398282203
30
0.0
 70
     32
  0
VERTEX
  8
MY3DLAYER
10
389.287978405125
20
3.25000000000032
30
0.0
 70
     32
  0
VERTEX
  8
MY3DLAYER
10
389.437829038882
20
3.61177143234637
30
0.0
 70
     32
  0
VERTEX
  8
MY3DLAYER
10
389.488940299448
20
4.00000000000014
30
0.0
 70
     32
  0
VERTEX
  8
MY3DLAYER
10
389.437829038882
20
4.38822856765398
30
0.0
 70
     32
  0
VERTEX
  8
MY3DLAYER
10
389.287978405125
20
4.75000000000023
30
0.0
 70
     32
  0
VERTEX
  8
MY3DLAYER
10
389.049600471228
20
5.06066017178011
30
0.0
 70
     32
  0
VERTEX
  8
MY3DLAYER
10
388.738940299448
20
5.29903810567683
30
0.0
 70
     32
  0
VERTEX
  8
MY3DLAYER
10
388.377168867102
20
5.44888873943378
30
0.0
 70
     32
  0
VERTEX
  8
MY3DLAYER
10
387.988940299448
20
5.50000000000013
30
0.0
 70
     32
  0
SEQEND
  0
POLYLINE
 8
Layer0
 66
     1
70
    8
 10
0.0
 20
 0.0
 30
0.0
  0
VERTEX
  8
MY3DLAYER
10
432.988940299448
20
5.50000000000007
30
0.0
 70
     32
  0
VERTEX
  8
MY3DLAYER
10
432.600711731795
20
5.44888873943362
30
0.0
 70
     32
  0
VERTEX
  8
MY3DLAYER
10
432.238940299448
20
5.29903810567683
30
0.0
 70
     32
  0
VERTEX
  8
MY3DLAYER
10
431.928280127668
20
5.06066017177984
30
0.0
 70
     32
  0
VERTEX
  8
MY3DLAYER
10
431.689902193772
20
4.75000000000023
30
0.0
 70
     32
  0
VERTEX
  8
MY3DLAYER
10
431.540051560015
20
4.38822856765377
30
0.0
 70
     32
  0
VERTEX
  8
MY3DLAYER
10
431.488940299448
20
4.0000000000002
30
0.0
 70
     32
  0
VERTEX
  8
MY3DLAYER
10
431.540051560015
20
3.61177143234628
30
0.0
 70
     32
  0
VERTEX
  8
MY3DLAYER
10
431.689902193772
20
3.25000000000012
30
0.0
 70
     32
  0
VERTEX
  8
MY3DLAYER
10
431.928280127669
20
2.9393398282203
30
0.0
 70
     32
  0
VERTEX
  8
MY3DLAYER
10
432.238940299448
20
2.70096189432341
30
0.0
 70
     32
  0
VERTEX
  8
MY3DLAYER
10
432.600711731795
20
2.55111126056643
30
0.0
 70
     32
  0
VERTEX
  8
MY3DLAYER
10
432.988940299448
20
2.50000000000029
30
0.0
 70
     32
  0
VERTEX
  8
MY3DLAYER
10
433.377168867102
20
2.55111126056646
30
0.0
 70
     32
  0
VERTEX
  8
MY3DLAYER
10
433.738940299448
20
2.70096189432336
30
0.0
 70
     32
  0
VERTEX
  8
MY3DLAYER
10
434.049600471228
20
2.93933982822035
30
0.0
 70
     32
  0
VERTEX
  8
MY3DLAYER
10
434.287978405125
20
3.25000000000021
30
0.0
 70
     32
  0
VERTEX
  8
MY3DLAYER
10
434.437829038882
20
3.61177143234639
30
0.0
 70
     32
  0
VERTEX
  8
MY3DLAYER
10
434.488940299448
20
4.00000000000013
30
0.0
 70
     32
  0
VERTEX
  8
MY3DLAYER
10
434.437829038882
20
4.3882285676539
30
0.0
 70
     32
  0
VERTEX
  8
MY3DLAYER
10
434.287978405125
20
4.75000000000019
30
0.0
 70
     32
  0
VERTEX
  8
MY3DLAYER
10
434.049600471228
20
5.06066017177992
30
0.0
 70
     32
  0
VERTEX
  8
MY3DLAYER
10
433.738940299449
20
5.2990381056771
30
0.0
 70
     32
  0
VERTEX
  8
MY3DLAYER
10
433.377168867102
20
5.44888873943384
30
0.0
 70
     32
  0
VERTEX
  8
MY3DLAYER
10
432.988940299448
20
5.50000000000007
30
0.0
 70
     32
  0
SEQEND
  0
POLYLINE
 8
Layer0
 66
     1
70
    8
 10
0.0
 20
 0.0
 30
0.0
  0
VERTEX
  8
MY3DLAYER
10
192.620701252423
20
0.0
30
0.0
 70
     32
  0
VERTEX
  8
MY3DLAYER
10
178.120701252422
20
0.0
30
0.0
 70
     32
  0
VERTEX
  8
MY3DLAYER
10
178.120701252422
20
87.9999999999992
30
0.0
 70
     32
  0
VERTEX
  8
MY3DLAYER
10
192.620701252422
20
87.9999999999996
30
0.0
 70
     32
  0
VERTEX
  8
MY3DLAYER
10
192.620701252423
20
0.0
30
0.0
 70
     32
  0
SEQEND
  0
POLYLINE
 8
Layer0
 66
     1
70
    8
 10
0.0
 20
 0.0
 30
0.0
  0
VERTEX
  8
MY3DLAYER
10
183.120701252422
20
4.99999999999977
30
0.0
 70
     32
  0
VERTEX
  8
MY3DLAYER
10
187.620701252423
20
4.99999999999965
30
0.0
 70
     32
  0
VERTEX
  8
MY3DLAYER
10
187.620701252423
20
82.9999999999995
30
0.0
 70
     32
  0
VERTEX
  8
MY3DLAYER
10
183.120701252422
20
82.9999999999994
30
0.0
 70
     32
  0
VERTEX
  8
MY3DLAYER
10
183.120701252422
20
4.99999999999977
30
0.0
 70
     32
  0
SEQEND
  0
POLYLINE
 8
Layer0
 66
     1
70
    8
 10
0.0
 20
 0.0
 30
0.0
  0
VERTEX
  8
MY3DLAYER
10
201.488940299449
20
1.32538424679751e-013
30
0.0
 70
     32
  0
VERTEX
  8
MY3DLAYER
10
201.488940299449
20
100.0
30
0.0
 70
     32
  0
VERTEX
  8
MY3DLAYER
10
279.488940299448
20
100.0
30
0.0
 70
     32
  0
VERTEX
  8
MY3DLAYER
10
279.488940299449
20
0.0
30
0.0
 70
     32
  0
VERTEX
  8
MY3DLAYER
10
201.488940299449
20
1.32538424679751e-013
30
0.0
 70
     32
  0
SEQEND
  0
POLYLINE
 8
Layer0
 66
     1
70
    8
 10
0.0
 20
 0.0
 30
0.0
  0
VERTEX
  8
MY3DLAYER
10
217.988940299448
20
5.50000000000013
30
0.0
 70
     32
  0
VERTEX
  8
MY3DLAYER
10
217.600711731795
20
5.44888873943358
30
0.0
 70
     32
  0
VERTEX
  8
MY3DLAYER
10
217.238940299448
20
5.29903810567681
30
0.0
 70
     32
  0
VERTEX
  8
MY3DLAYER
10
216.928280127668
20
5.06066017177977
30
0.0
 70
     32
  0
VERTEX
  8
MY3DLAYER
10
216.689902193772
20
4.75000000000014
30
0.0
 70
     32
  0
VERTEX
  8
MY3DLAYER
10
216.540051560015
20
4.38822856765383
30
0.0
 70
     32
  0
VERTEX
  8
MY3DLAYER
10
216.488940299449
20
4.00000000000016
30
0.0
 70
     32
  0
VERTEX
  8
MY3DLAYER
10
216.540051560015
20
3.61177143234635
30
0.0
 70
     32
  0
VERTEX
  8
MY3DLAYER
10
216.689902193772
20
3.25
30
0.0
 70
     32
  0
VERTEX
  8
MY3DLAYER
10
216.928280127668
20
2.93933982822028
30
0.0
 70
     32
  0
VERTEX
  8
MY3DLAYER
10
217.238940299449
20
2.70096189432343
30
0.0
 70
     32
  0
VERTEX
  8
MY3DLAYER
10
217.600711731795
20
2.55111126056648
30
0.0
 70
     32
  0
VERTEX
  8
MY3DLAYER
10
217.988940299449
20
2.50000000000022
30
0.0
 70
     32
  0
VERTEX
  8
MY3DLAYER
10
218.377168867102
20
2.55111126056664
30
0.0
 70
     32
  0
VERTEX
  8
MY3DLAYER
10
218.738940299448
20
2.70096189432361
30
0.0
 70
     32
  0
VERTEX
  8
MY3DLAYER
10
219.049600471228
20
2.9393398282203
30
0.0
 70
     32
  0
VERTEX
  8
MY3DLAYER
10
219.287978405125
20
3.25000000000032
30
0.0
 70
     32
  0
VERTEX
  8
MY3DLAYER
10
219.437829038882
20
3.61177143234637
30
0.0
 70
     32
  0
VERTEX
  8
MY3DLAYER
10
219.488940299448
20
4.00000000000014
30
0.0
 70
     32
  0
VERTEX
  8
MY3DLAYER
10
219.437829038882
20
4.38822856765398
30
0.0
 70
     32
  0
VERTEX
  8
MY3DLAYER
10
219.287978405125
20
4.75000000000023
30
0.0
 70
     32
  0
VERTEX
  8
MY3DLAYER
10
219.049600471228
20
5.06066017178011
30
0.0
 70
     32
  0
VERTEX
  8
MY3DLAYER
10
218.738940299449
20
5.29903810567683
30
0.0
 70
     32
  0
VERTEX
  8
MY3DLAYER
10
218.377168867102
20
5.44888873943378
30
0.0
 70
     32
  0
VERTEX
  8
MY3DLAYER
10
217.988940299448
20
5.50000000000013
30
0.0
 70
     32
  0
SEQEND
  0
POLYLINE
 8
Layer0
 66
     1
70
    8
 10
0.0
 20
 0.0
 30
0.0
  0
VERTEX
  8
MY3DLAYER
10
262.988940299448
20
5.50000000000007
30
0.0
 70
     32
  0
VERTEX
  8
MY3DLAYER
10
262.600711731794
20
5.44888873943362
30
0.0
 70
     32
  0
VERTEX
  8
MY3DLAYER
10
262.238940299448
20
5.29903810567683
30
0.0
 70
     32
  0
VERTEX
  8
MY3DLAYER
10
261.928280127668
20
5.06066017177984
30
0.0
 70
     32
  0
VERTEX
  8
MY3DLAYER
10
261.689902193772
20
4.75000000000023
30
0.0
 70
     32
  0
VERTEX
  8
MY3DLAYER
10
261.540051560015
20
4.38822856765377
30
0.0
 70
     32
  0
VERTEX
  8
MY3DLAYER
10
261.488940299448
20
4.0000000000002
30
0.0
 70
     32
  0
VERTEX
  8
MY3DLAYER
10
261.540051560015
20
3.61177143234628
30
0.0
 70
     32
  0
VERTEX
  8
MY3DLAYER
10
261.689902193772
20
3.25000000000012
30
0.0
 70
     32
  0
VERTEX
  8
MY3DLAYER
10
261.928280127669
20
2.9393398282203
30
0.0
 70
     32
  0
VERTEX
  8
MY3DLAYER
10
262.238940299448
20
2.70096189432341
30
0.0
 70
     32
  0
VERTEX
  8
MY3DLAYER
10
262.600711731795
20
2.55111126056643
30
0.0
 70
     32
  0
VERTEX
  8
MY3DLAYER
10
262.988940299448
20
2.50000000000029
30
0.0
 70
     32
  0
VERTEX
  8
MY3DLAYER
10
263.377168867102
20
2.55111126056646
30
0.0
 70
     32
  0
VERTEX
  8
MY3DLAYER
10
263.738940299448
20
2.70096189432336
30
0.0
 70
     32
  0
VERTEX
  8
MY3DLAYER
10
264.049600471228
20
2.93933982822035
30
0.0
 70
     32
  0
VERTEX
  8
MY3DLAYER
10
264.287978405125
20
3.25000000000021
30
0.0
 70
     32
  0
VERTEX
  8
MY3DLAYER
10
264.437829038882
20
3.61177143234639
30
0.0
 70
     32
  0
VERTEX
  8
MY3DLAYER
10
264.488940299448
20
4.00000000000013
30
0.0
 70
     32
  0
VERTEX
  8
MY3DLAYER
10
264.437829038882
20
4.3882285676539
30
0.0
 70
     32
  0
VERTEX
  8
MY3DLAYER
10
264.287978405125
20
4.75000000000019
30
0.0
 70
     32
  0
VERTEX
  8
MY3DLAYER
10
264.049600471228
20
5.06066017177992
30
0.0
 70
     32
  0
VERTEX
  8
MY3DLAYER
10
263.738940299449
20
5.2990381056771
30
0.0
 70
     32
  0
VERTEX
  8
MY3DLAYER
10
263.377168867102
20
5.44888873943384
30
0.0
 70
     32
  0
VERTEX
  8
MY3DLAYER
10
262.988940299448
20
5.50000000000007
30
0.0
 70
     32
  0
SEQEND
 0
ENDSEC
 0
EOF
