 0
SECTION
 2
ENTITIES
  0
POLYLINE
 8
Layer0
 66
     1
70
    8
 10
0.0
 20
 0.0
 30
0.0
  0
VERTEX
  8
MY3DLAYER
10
0.0
20
0.0
30
0.0
 70
     32
  0
VERTEX
  8
MY3DLAYER
10
0.0
20
11.4999999999999
30
0.0
 70
     32
  0
VERTEX
  8
MY3DLAYER
10
49.0
20
11.4999999999999
30
0.0
 70
     32
  0
VERTEX
  8
MY3DLAYER
10
49.0
20
66.4999999999998
30
0.0
 70
     32
  0
VERTEX
  8
MY3DLAYER
10
0.0
20
66.4999999999998
30
0.0
 70
     32
  0
VERTEX
  8
MY3DLAYER
10
0.0
20
78.0
30
0.0
 70
     32
  0
VERTEX
  8
MY3DLAYER
10
53.0000000000001
20
78.0
30
0.0
 70
     32
  0
VERTEX
  8
MY3DLAYER
10
53.0000000000001
20
0.0
30
0.0
 70
     32
  0
VERTEX
  8
MY3DLAYER
10
0.0
20
0.0
30
0.0
 70
     32
  0
SEQEND
  0
POLYLINE
 8
Layer0
 66
     1
70
    8
 10
0.0
 20
 0.0
 30
0.0
  0
VERTEX
  8
MY3DLAYER
10
50.5000000000001
20
73.9999999999998
30
0.0
 70
     32
  0
VERTEX
  8
MY3DLAYER
10
50.4488887394336
20
74.3882285676536
30
0.0
 70
     32
  0
VERTEX
  8
MY3DLAYER
10
50.2990381056767
20
74.7499999999998
30
0.0
 70
     32
  0
VERTEX
  8
MY3DLAYER
10
50.0606601717799
20
75.0606601717796
30
0.0
 70
     32
  0
VERTEX
  8
MY3DLAYER
10
49.7500000000001
20
75.2990381056766
30
0.0
 70
     32
  0
VERTEX
  8
MY3DLAYER
10
49.3882285676538
20
75.4488887394335
30
0.0
 70
     32
  0
VERTEX
  8
MY3DLAYER
10
49.0
20
75.4999999999998
30
0.0
 70
     32
  0
VERTEX
  8
MY3DLAYER
10
48.6117714323462
20
75.4488887394335
30
0.0
 70
     32
  0
VERTEX
  8
MY3DLAYER
10
48.25
20
75.2990381056766
30
0.0
 70
     32
  0
VERTEX
  8
MY3DLAYER
10
47.9393398282202
20
75.0606601717798
30
0.0
 70
     32
  0
VERTEX
  8
MY3DLAYER
10
47.7009618943234
20
74.7499999999998
30
0.0
 70
     32
  0
VERTEX
  8
MY3DLAYER
10
47.5511112605664
20
74.3882285676536
30
0.0
 70
     32
  0
VERTEX
  8
MY3DLAYER
10
47.5
20
73.9999999999998
30
0.0
 70
     32
  0
VERTEX
  8
MY3DLAYER
10
47.5511112605664
20
73.611771432346
30
0.0
 70
     32
  0
VERTEX
  8
MY3DLAYER
10
47.7009618943234
20
73.2499999999997
30
0.0
 70
     32
  0
VERTEX
  8
MY3DLAYER
10
47.9393398282202
20
72.93933982822
30
0.0
 70
     32
  0
VERTEX
  8
MY3DLAYER
10
48.25
20
72.7009618943232
30
0.0
 70
     32
  0
VERTEX
  8
MY3DLAYER
10
48.6117714323462
20
72.5511112605662
30
0.0
 70
     32
  0
VERTEX
  8
MY3DLAYER
10
49.0
20
72.4999999999997
30
0.0
 70
     32
  0
VERTEX
  8
MY3DLAYER
10
49.3882285676538
20
72.5511112605662
30
0.0
 70
     32
  0
VERTEX
  8
MY3DLAYER
10
49.7500000000001
20
72.7009618943232
30
0.0
 70
     32
  0
VERTEX
  8
MY3DLAYER
10
50.0606601717799
20
72.93933982822
30
0.0
 70
     32
  0
VERTEX
  8
MY3DLAYER
10
50.2990381056767
20
73.2499999999997
30
0.0
 70
     32
  0
VERTEX
  8
MY3DLAYER
10
50.4488887394336
20
73.611771432346
30
0.0
 70
     32
  0
VERTEX
  8
MY3DLAYER
10
50.5000000000001
20
73.9999999999998
30
0.0
 70
     32
  0
SEQEND
  0
POLYLINE
 8
Layer0
 66
     1
70
    8
 10
0.0
 20
 0.0
 30
0.0
  0
VERTEX
  8
MY3DLAYER
10
5.50000000000006
20
73.9999999999998
30
0.0
 70
     32
  0
VERTEX
  8
MY3DLAYER
10
5.44888873943364
20
74.3882285676536
30
0.0
 70
     32
  0
VERTEX
  8
MY3DLAYER
10
5.29903810567671
20
74.7499999999998
30
0.0
 70
     32
  0
VERTEX
  8
MY3DLAYER
10
5.06066017177988
20
75.0606601717796
30
0.0
 70
     32
  0
VERTEX
  8
MY3DLAYER
10
4.75000000000005
20
75.2990381056766
30
0.0
 70
     32
  0
VERTEX
  8
MY3DLAYER
10
4.38822856765384
20
75.4488887394335
30
0.0
 70
     32
  0
VERTEX
  8
MY3DLAYER
10
4.00000000000004
20
75.4999999999998
30
0.0
 70
     32
  0
VERTEX
  8
MY3DLAYER
10
3.61177143234624
20
75.4488887394335
30
0.0
 70
     32
  0
VERTEX
  8
MY3DLAYER
10
3.25000000000003
20
75.2990381056766
30
0.0
 70
     32
  0
VERTEX
  8
MY3DLAYER
10
2.93933982822015
20
75.0606601717798
30
0.0
 70
     32
  0
VERTEX
  8
MY3DLAYER
10
2.70096189432337
20
74.7499999999998
30
0.0
 70
     32
  0
VERTEX
  8
MY3DLAYER
10
2.55111126056644
20
74.3882285676536
30
0.0
 70
     32
  0
VERTEX
  8
MY3DLAYER
10
2.50000000000002
20
73.9999999999998
30
0.0
 70
     32
  0
VERTEX
  8
MY3DLAYER
10
2.55111126056644
20
73.611771432346
30
0.0
 70
     32
  0
VERTEX
  8
MY3DLAYER
10
2.70096189432337
20
73.2499999999997
30
0.0
 70
     32
  0
VERTEX
  8
MY3DLAYER
10
2.93933982822015
20
72.93933982822
30
0.0
 70
     32
  0
VERTEX
  8
MY3DLAYER
10
3.25000000000003
20
72.7009618943232
30
0.0
 70
     32
  0
VERTEX
  8
MY3DLAYER
10
3.61177143234624
20
72.5511112605662
30
0.0
 70
     32
  0
VERTEX
  8
MY3DLAYER
10
4.00000000000004
20
72.4999999999997
30
0.0
 70
     32
  0
VERTEX
  8
MY3DLAYER
10
4.38822856765384
20
72.5511112605662
30
0.0
 70
     32
  0
VERTEX
  8
MY3DLAYER
10
4.75000000000005
20
72.7009618943232
30
0.0
 70
     32
  0
VERTEX
  8
MY3DLAYER
10
5.06066017177988
20
72.93933982822
30
0.0
 70
     32
  0
VERTEX
  8
MY3DLAYER
10
5.29903810567671
20
73.2499999999997
30
0.0
 70
     32
  0
VERTEX
  8
MY3DLAYER
10
5.44888873943364
20
73.611771432346
30
0.0
 70
     32
  0
VERTEX
  8
MY3DLAYER
10
5.50000000000006
20
73.9999999999998
30
0.0
 70
     32
  0
SEQEND
  0
POLYLINE
 8
Layer0
 66
     1
70
    8
 10
0.0
 20
 0.0
 30
0.0
  0
VERTEX
  8
MY3DLAYER
10
5.50000000000006
20
4.00000000000002
30
0.0
 70
     32
  0
VERTEX
  8
MY3DLAYER
10
5.44888873943364
20
4.38822856765373
30
0.0
 70
     32
  0
VERTEX
  8
MY3DLAYER
10
5.29903810567671
20
4.75000000000002
30
0.0
 70
     32
  0
VERTEX
  8
MY3DLAYER
10
5.06066017177988
20
5.06066017177979
30
0.0
 70
     32
  0
VERTEX
  8
MY3DLAYER
10
4.75000000000005
20
5.29903810567667
30
0.0
 70
     32
  0
VERTEX
  8
MY3DLAYER
10
4.38822856765384
20
5.4488887394336
30
0.0
 70
     32
  0
VERTEX
  8
MY3DLAYER
10
4.00000000000004
20
5.50000000000001
30
0.0
 70
     32
  0
VERTEX
  8
MY3DLAYER
10
3.61177143234624
20
5.4488887394336
30
0.0
 70
     32
  0
VERTEX
  8
MY3DLAYER
10
3.25000000000003
20
5.29903810567667
30
0.0
 70
     32
  0
VERTEX
  8
MY3DLAYER
10
2.93933982822015
20
5.06066017177979
30
0.0
 70
     32
  0
VERTEX
  8
MY3DLAYER
10
2.70096189432337
20
4.75000000000002
30
0.0
 70
     32
  0
VERTEX
  8
MY3DLAYER
10
2.55111126056644
20
4.38822856765373
30
0.0
 70
     32
  0
VERTEX
  8
MY3DLAYER
10
2.50000000000002
20
4.00000000000002
30
0.0
 70
     32
  0
VERTEX
  8
MY3DLAYER
10
2.55111126056644
20
3.61177143234621
30
0.0
 70
     32
  0
VERTEX
  8
MY3DLAYER
10
2.70096189432337
20
3.25000000000001
30
0.0
 70
     32
  0
VERTEX
  8
MY3DLAYER
10
2.93933982822015
20
2.93933982822012
30
0.0
 70
     32
  0
VERTEX
  8
MY3DLAYER
10
3.25000000000003
20
2.70096189432334
30
0.0
 70
     32
  0
VERTEX
  8
MY3DLAYER
10
3.61177143234624
20
2.55111126056632
30
0.0
 70
     32
  0
VERTEX
  8
MY3DLAYER
10
4.00000000000004
20
2.5
30
0.0
 70
     32
  0
VERTEX
  8
MY3DLAYER
10
4.38822856765384
20
2.55111126056632
30
0.0
 70
     32
  0
VERTEX
  8
MY3DLAYER
10
4.75000000000005
20
2.70096189432334
30
0.0
 70
     32
  0
VERTEX
  8
MY3DLAYER
10
5.06066017177988
20
2.93933982822012
30
0.0
 70
     32
  0
VERTEX
  8
MY3DLAYER
10
5.29903810567671
20
3.25000000000001
30
0.0
 70
     32
  0
VERTEX
  8
MY3DLAYER
10
5.44888873943364
20
3.61177143234621
30
0.0
 70
     32
  0
VERTEX
  8
MY3DLAYER
10
5.50000000000006
20
4.00000000000002
30
0.0
 70
     32
  0
SEQEND
  0
POLYLINE
 8
Layer0
 66
     1
70
    8
 10
0.0
 20
 0.0
 30
0.0
  0
VERTEX
  8
MY3DLAYER
10
50.4488887394336
20
4.38822856765373
30
0.0
 70
     32
  0
VERTEX
  8
MY3DLAYER
10
50.2990381056767
20
4.75000000000002
30
0.0
 70
     32
  0
VERTEX
  8
MY3DLAYER
10
50.0606601717799
20
5.06066017177979
30
0.0
 70
     32
  0
VERTEX
  8
MY3DLAYER
10
49.7500000000001
20
5.29903810567667
30
0.0
 70
     32
  0
VERTEX
  8
MY3DLAYER
10
49.3882285676538
20
5.4488887394336
30
0.0
 70
     32
  0
VERTEX
  8
MY3DLAYER
10
49.0
20
5.50000000000001
30
0.0
 70
     32
  0
VERTEX
  8
MY3DLAYER
10
48.6117714323462
20
5.4488887394336
30
0.0
 70
     32
  0
VERTEX
  8
MY3DLAYER
10
48.25
20
5.29903810567667
30
0.0
 70
     32
  0
VERTEX
  8
MY3DLAYER
10
47.9393398282202
20
5.06066017177979
30
0.0
 70
     32
  0
VERTEX
  8
MY3DLAYER
10
47.7009618943234
20
4.75000000000002
30
0.0
 70
     32
  0
VERTEX
  8
MY3DLAYER
10
47.5511112605664
20
4.38822856765373
30
0.0
 70
     32
  0
VERTEX
  8
MY3DLAYER
10
47.5
20
4.00000000000002
30
0.0
 70
     32
  0
VERTEX
  8
MY3DLAYER
10
47.5511112605664
20
3.61177143234621
30
0.0
 70
     32
  0
VERTEX
  8
MY3DLAYER
10
47.7009618943234
20
3.25000000000001
30
0.0
 70
     32
  0
VERTEX
  8
MY3DLAYER
10
47.9393398282202
20
2.93933982822012
30
0.0
 70
     32
  0
VERTEX
  8
MY3DLAYER
10
48.25
20
2.70096189432334
30
0.0
 70
     32
  0
VERTEX
  8
MY3DLAYER
10
48.6117714323462
20
2.55111126056632
30
0.0
 70
     32
  0
VERTEX
  8
MY3DLAYER
10
49.0
20
2.5
30
0.0
 70
     32
  0
VERTEX
  8
MY3DLAYER
10
49.3882285676538
20
2.55111126056632
30
0.0
 70
     32
  0
VERTEX
  8
MY3DLAYER
10
49.7500000000001
20
2.70096189432334
30
0.0
 70
     32
  0
VERTEX
  8
MY3DLAYER
10
50.0606601717799
20
2.93933982822012
30
0.0
 70
     32
  0
VERTEX
  8
MY3DLAYER
10
50.2990381056767
20
3.25000000000001
30
0.0
 70
     32
  0
VERTEX
  8
MY3DLAYER
10
50.4488887394336
20
3.61177143234621
30
0.0
 70
     32
  0
VERTEX
  8
MY3DLAYER
10
50.5000000000001
20
4.00000000000002
30
0.0
 70
     32
  0
VERTEX
  8
MY3DLAYER
10
50.4488887394336
20
4.38822856765373
30
0.0
 70
     32
  0
SEQEND
  0
POLYLINE
 8
Layer0
 66
     1
70
    8
 10
0.0
 20
 0.0
 30
0.0
  0
VERTEX
  8
MY3DLAYER
10
122.168752095696
20
0.0
30
0.0
 70
     32
  0
VERTEX
  8
MY3DLAYER
10
69.168752095696
20
0.0
30
0.0
 70
     32
  0
VERTEX
  8
MY3DLAYER
10
69.168752095696
20
78.0000000000001
30
0.0
 70
     32
  0
VERTEX
  8
MY3DLAYER
10
122.168752095696
20
78.0000000000001
30
0.0
 70
     32
  0
VERTEX
  8
MY3DLAYER
10
122.168752095696
20
0.0
30
0.0
 70
     32
  0
SEQEND
  0
POLYLINE
 8
Layer0
 66
     1
70
    8
 10
0.0
 20
 0.0
 30
0.0
  0
VERTEX
  8
MY3DLAYER
10
119.668752095696
20
74.0
30
0.0
 70
     32
  0
VERTEX
  8
MY3DLAYER
10
119.617640835129
20
74.3882285676538
30
0.0
 70
     32
  0
VERTEX
  8
MY3DLAYER
10
119.467790201372
20
74.75
30
0.0
 70
     32
  0
VERTEX
  8
MY3DLAYER
10
119.229412267476
20
75.0606601717799
30
0.0
 70
     32
  0
VERTEX
  8
MY3DLAYER
10
118.918752095696
20
75.2990381056767
30
0.0
 70
     32
  0
VERTEX
  8
MY3DLAYER
10
118.55698066335
20
75.4488887394337
30
0.0
 70
     32
  0
VERTEX
  8
MY3DLAYER
10
118.168752095696
20
75.5000000000001
30
0.0
 70
     32
  0
VERTEX
  8
MY3DLAYER
10
117.780523528042
20
75.4488887394337
30
0.0
 70
     32
  0
VERTEX
  8
MY3DLAYER
10
117.418752095696
20
75.2990381056767
30
0.0
 70
     32
  0
VERTEX
  8
MY3DLAYER
10
117.108091923916
20
75.0606601717799
30
0.0
 70
     32
  0
VERTEX
  8
MY3DLAYER
10
116.869713990019
20
74.75
30
0.0
 70
     32
  0
VERTEX
  8
MY3DLAYER
10
116.719863356262
20
74.3882285676538
30
0.0
 70
     32
  0
VERTEX
  8
MY3DLAYER
10
116.668752095696
20
74.0
30
0.0
 70
     32
  0
VERTEX
  8
MY3DLAYER
10
116.719863356262
20
73.6117714323462
30
0.0
 70
     32
  0
VERTEX
  8
MY3DLAYER
10
116.869713990019
20
73.25
30
0.0
 70
     32
  0
VERTEX
  8
MY3DLAYER
10
117.108091923916
20
72.9393398282202
30
0.0
 70
     32
  0
VERTEX
  8
MY3DLAYER
10
117.418752095696
20
72.7009618943234
30
0.0
 70
     32
  0
VERTEX
  8
MY3DLAYER
10
117.780523528042
20
72.5511112605664
30
0.0
 70
     32
  0
VERTEX
  8
MY3DLAYER
10
118.168752095696
20
72.5
30
0.0
 70
     32
  0
VERTEX
  8
MY3DLAYER
10
118.55698066335
20
72.5511112605664
30
0.0
 70
     32
  0
VERTEX
  8
MY3DLAYER
10
118.918752095696
20
72.7009618943234
30
0.0
 70
     32
  0
VERTEX
  8
MY3DLAYER
10
119.229412267476
20
72.9393398282201
30
0.0
 70
     32
  0
VERTEX
  8
MY3DLAYER
10
119.467790201372
20
73.25
30
0.0
 70
     32
  0
VERTEX
  8
MY3DLAYER
10
119.617640835129
20
73.6117714323462
30
0.0
 70
     32
  0
VERTEX
  8
MY3DLAYER
10
119.668752095696
20
74.0
30
0.0
 70
     32
  0
SEQEND
  0
POLYLINE
 8
Layer0
 66
     1
70
    8
 10
0.0
 20
 0.0
 30
0.0
  0
VERTEX
  8
MY3DLAYER
10
74.668752095696
20
74.0
30
0.0
 70
     32
  0
VERTEX
  8
MY3DLAYER
10
74.6176408351296
20
74.3882285676538
30
0.0
 70
     32
  0
VERTEX
  8
MY3DLAYER
10
74.4677902013727
20
74.75
30
0.0
 70
     32
  0
VERTEX
  8
MY3DLAYER
10
74.2294122674759
20
75.0606601717799
30
0.0
 70
     32
  0
VERTEX
  8
MY3DLAYER
10
73.918752095696
20
75.2990381056767
30
0.0
 70
     32
  0
VERTEX
  8
MY3DLAYER
10
73.5569806633498
20
75.4488887394337
30
0.0
 70
     32
  0
VERTEX
  8
MY3DLAYER
10
73.168752095696
20
75.5000000000001
30
0.0
 70
     32
  0
VERTEX
  8
MY3DLAYER
10
72.7805235280422
20
75.4488887394337
30
0.0
 70
     32
  0
VERTEX
  8
MY3DLAYER
10
72.418752095696
20
75.2990381056767
30
0.0
 70
     32
  0
VERTEX
  8
MY3DLAYER
10
72.1080919239161
20
75.0606601717799
30
0.0
 70
     32
  0
VERTEX
  8
MY3DLAYER
10
71.8697139900193
20
74.75
30
0.0
 70
     32
  0
VERTEX
  8
MY3DLAYER
10
71.7198633562624
20
74.3882285676538
30
0.0
 70
     32
  0
VERTEX
  8
MY3DLAYER
10
71.668752095696
20
74.0
30
0.0
 70
     32
  0
VERTEX
  8
MY3DLAYER
10
71.7198633562624
20
73.6117714323462
30
0.0
 70
     32
  0
VERTEX
  8
MY3DLAYER
10
71.8697139900193
20
73.25
30
0.0
 70
     32
  0
VERTEX
  8
MY3DLAYER
10
72.1080919239161
20
72.9393398282202
30
0.0
 70
     32
  0
VERTEX
  8
MY3DLAYER
10
72.418752095696
20
72.7009618943234
30
0.0
 70
     32
  0
VERTEX
  8
MY3DLAYER
10
72.7805235280422
20
72.5511112605664
30
0.0
 70
     32
  0
VERTEX
  8
MY3DLAYER
10
73.168752095696
20
72.5
30
0.0
 70
     32
  0
VERTEX
  8
MY3DLAYER
10
73.5569806633498
20
72.5511112605664
30
0.0
 70
     32
  0
VERTEX
  8
MY3DLAYER
10
73.918752095696
20
72.7009618943234
30
0.0
 70
     32
  0
VERTEX
  8
MY3DLAYER
10
74.2294122674759
20
72.9393398282201
30
0.0
 70
     32
  0
VERTEX
  8
MY3DLAYER
10
74.4677902013727
20
73.25
30
0.0
 70
     32
  0
VERTEX
  8
MY3DLAYER
10
74.6176408351296
20
73.6117714323462
30
0.0
 70
     32
  0
VERTEX
  8
MY3DLAYER
10
74.668752095696
20
74.0
30
0.0
 70
     32
  0
SEQEND
  0
POLYLINE
 8
Layer0
 66
     1
70
    8
 10
0.0
 20
 0.0
 30
0.0
  0
VERTEX
  8
MY3DLAYER
10
74.668752095696
20
3.99999999999999
30
0.0
 70
     32
  0
VERTEX
  8
MY3DLAYER
10
74.6176408351296
20
4.38822856765377
30
0.0
 70
     32
  0
VERTEX
  8
MY3DLAYER
10
74.4677902013727
20
4.75
30
0.0
 70
     32
  0
VERTEX
  8
MY3DLAYER
10
74.2294122674759
20
5.06066017177982
30
0.0
 70
     32
  0
VERTEX
  8
MY3DLAYER
10
73.918752095696
20
5.29903810567667
30
0.0
 70
     32
  0
VERTEX
  8
MY3DLAYER
10
73.5569806633498
20
5.44888873943362
30
0.0
 70
     32
  0
VERTEX
  8
MY3DLAYER
10
73.168752095696
20
5.50000000000001
30
0.0
 70
     32
  0
VERTEX
  8
MY3DLAYER
10
72.7805235280422
20
5.44888873943362
30
0.0
 70
     32
  0
VERTEX
  8
MY3DLAYER
10
72.418752095696
20
5.29903810567667
30
0.0
 70
     32
  0
VERTEX
  8
MY3DLAYER
10
72.1080919239161
20
5.06066017177984
30
0.0
 70
     32
  0
VERTEX
  8
MY3DLAYER
10
71.8697139900193
20
4.75
30
0.0
 70
     32
  0
VERTEX
  8
MY3DLAYER
10
71.7198633562624
20
4.38822856765377
30
0.0
 70
     32
  0
VERTEX
  8
MY3DLAYER
10
71.668752095696
20
3.99999999999999
30
0.0
 70
     32
  0
VERTEX
  8
MY3DLAYER
10
71.7198633562624
20
3.61177143234621
30
0.0
 70
     32
  0
VERTEX
  8
MY3DLAYER
10
71.8697139900193
20
3.24999999999998
30
0.0
 70
     32
  0
VERTEX
  8
MY3DLAYER
10
72.1080919239161
20
2.93933982822017
30
0.0
 70
     32
  0
VERTEX
  8
MY3DLAYER
10
72.418752095696
20
2.70096189432332
30
0.0
 70
     32
  0
VERTEX
  8
MY3DLAYER
10
72.7805235280422
20
2.55111126056637
30
0.0
 70
     32
  0
VERTEX
  8
MY3DLAYER
10
73.168752095696
20
2.49999999999997
30
0.0
 70
     32
  0
VERTEX
  8
MY3DLAYER
10
73.5569806633498
20
2.55111126056637
30
0.0
 70
     32
  0
VERTEX
  8
MY3DLAYER
10
73.918752095696
20
2.70096189432332
30
0.0
 70
     32
  0
VERTEX
  8
MY3DLAYER
10
74.2294122674759
20
2.93933982822015
30
0.0
 70
     32
  0
VERTEX
  8
MY3DLAYER
10
74.4677902013727
20
3.24999999999998
30
0.0
 70
     32
  0
VERTEX
  8
MY3DLAYER
10
74.6176408351296
20
3.61177143234621
30
0.0
 70
     32
  0
VERTEX
  8
MY3DLAYER
10
74.668752095696
20
3.99999999999999
30
0.0
 70
     32
  0
SEQEND
  0
POLYLINE
 8
Layer0
 66
     1
70
    8
 10
0.0
 20
 0.0
 30
0.0
  0
VERTEX
  8
MY3DLAYER
10
119.617640835129
20
4.38822856765377
30
0.0
 70
     32
  0
VERTEX
  8
MY3DLAYER
10
119.467790201372
20
4.75
30
0.0
 70
     32
  0
VERTEX
  8
MY3DLAYER
10
119.229412267476
20
5.06066017177982
30
0.0
 70
     32
  0
VERTEX
  8
MY3DLAYER
10
118.918752095696
20
5.29903810567667
30
0.0
 70
     32
  0
VERTEX
  8
MY3DLAYER
10
118.55698066335
20
5.44888873943362
30
0.0
 70
     32
  0
VERTEX
  8
MY3DLAYER
10
118.168752095696
20
5.50000000000001
30
0.0
 70
     32
  0
VERTEX
  8
MY3DLAYER
10
117.780523528042
20
5.44888873943362
30
0.0
 70
     32
  0
VERTEX
  8
MY3DLAYER
10
117.418752095696
20
5.29903810567667
30
0.0
 70
     32
  0
VERTEX
  8
MY3DLAYER
10
117.108091923916
20
5.06066017177984
30
0.0
 70
     32
  0
VERTEX
  8
MY3DLAYER
10
116.869713990019
20
4.75
30
0.0
 70
     32
  0
VERTEX
  8
MY3DLAYER
10
116.719863356262
20
4.38822856765377
30
0.0
 70
     32
  0
VERTEX
  8
MY3DLAYER
10
116.668752095696
20
3.99999999999999
30
0.0
 70
     32
  0
VERTEX
  8
MY3DLAYER
10
116.719863356262
20
3.61177143234621
30
0.0
 70
     32
  0
VERTEX
  8
MY3DLAYER
10
116.869713990019
20
3.24999999999998
30
0.0
 70
     32
  0
VERTEX
  8
MY3DLAYER
10
117.108091923916
20
2.93933982822017
30
0.0
 70
     32
  0
VERTEX
  8
MY3DLAYER
10
117.418752095696
20
2.70096189432332
30
0.0
 70
     32
  0
VERTEX
  8
MY3DLAYER
10
117.780523528042
20
2.55111126056637
30
0.0
 70
     32
  0
VERTEX
  8
MY3DLAYER
10
118.168752095696
20
2.49999999999997
30
0.0
 70
     32
  0
VERTEX
  8
MY3DLAYER
10
118.55698066335
20
2.55111126056637
30
0.0
 70
     32
  0
VERTEX
  8
MY3DLAYER
10
118.918752095696
20
2.70096189432332
30
0.0
 70
     32
  0
VERTEX
  8
MY3DLAYER
10
119.229412267476
20
2.93933982822015
30
0.0
 70
     32
  0
VERTEX
  8
MY3DLAYER
10
119.467790201372
20
3.24999999999998
30
0.0
 70
     32
  0
VERTEX
  8
MY3DLAYER
10
119.617640835129
20
3.61177143234621
30
0.0
 70
     32
  0
VERTEX
  8
MY3DLAYER
10
119.668752095696
20
3.99999999999999
30
0.0
 70
     32
  0
VERTEX
  8
MY3DLAYER
10
119.617640835129
20
4.38822856765377
30
0.0
 70
     32
  0
SEQEND
  0
POLYLINE
 8
Layer0
 66
     1
70
    8
 10
0.0
 20
 0.0
 30
0.0
  0
VERTEX
  8
MY3DLAYER
10
69.168752095696
20
78.0000000000001
30
0.0
 70
     32
  0
VERTEX
  8
MY3DLAYER
10
69.168752095696
20
0.0
30
0.0
 70
     32
  0
VERTEX
  8
MY3DLAYER
10
59.168752095696
20
0.0
30
0.0
 70
     32
  0
VERTEX
  8
MY3DLAYER
10
59.168752095696
20
78.0000000000001
30
0.0
 70
     32
  0
VERTEX
  8
MY3DLAYER
10
69.168752095696
20
78.0000000000001
30
0.0
 70
     32
  0
SEQEND
  0
POLYLINE
 8
Layer0
 66
     1
70
    8
 10
0.0
 20
 0.0
 30
0.0
  0
VERTEX
  8
MY3DLAYER
10
138.755503881488
20
78.0000000000001
30
0.0
 70
     32
  0
VERTEX
  8
MY3DLAYER
10
138.755503881488
20
0.0
30
0.0
 70
     32
  0
VERTEX
  8
MY3DLAYER
10
128.755503881488
20
0.0
30
0.0
 70
     32
  0
VERTEX
  8
MY3DLAYER
10
128.755503881488
20
78.0000000000001
30
0.0
 70
     32
  0
VERTEX
  8
MY3DLAYER
10
138.755503881488
20
78.0000000000001
30
0.0
 70
     32
  0
SEQEND
  0
POLYLINE
 8
Layer0
 66
     1
70
    8
 10
0.0
 20
 0.0
 30
0.0
  0
VERTEX
  8
MY3DLAYER
10
191.755503881487
20
0.0
30
0.0
 70
     32
  0
VERTEX
  8
MY3DLAYER
10
138.755503881488
20
0.0
30
0.0
 70
     32
  0
VERTEX
  8
MY3DLAYER
10
138.755503881488
20
78.0000000000001
30
0.0
 70
     32
  0
VERTEX
  8
MY3DLAYER
10
191.755503881487
20
78.0000000000001
30
0.0
 70
     32
  0
VERTEX
  8
MY3DLAYER
10
191.755503881487
20
0.0
30
0.0
 70
     32
  0
SEQEND
  0
POLYLINE
 8
Layer0
 66
     1
70
    8
 10
0.0
 20
 0.0
 30
0.0
  0
VERTEX
  8
MY3DLAYER
10
189.255503881487
20
74.0
30
0.0
 70
     32
  0
VERTEX
  8
MY3DLAYER
10
189.204392620921
20
74.3882285676538
30
0.0
 70
     32
  0
VERTEX
  8
MY3DLAYER
10
189.054541987164
20
74.75
30
0.0
 70
     32
  0
VERTEX
  8
MY3DLAYER
10
188.816164053267
20
75.0606601717799
30
0.0
 70
     32
  0
VERTEX
  8
MY3DLAYER
10
188.505503881487
20
75.2990381056767
30
0.0
 70
     32
  0
VERTEX
  8
MY3DLAYER
10
188.143732449141
20
75.4488887394337
30
0.0
 70
     32
  0
VERTEX
  8
MY3DLAYER
10
187.755503881487
20
75.5000000000001
30
0.0
 70
     32
  0
VERTEX
  8
MY3DLAYER
10
187.367275313834
20
75.4488887394337
30
0.0
 70
     32
  0
VERTEX
  8
MY3DLAYER
10
187.005503881487
20
75.2990381056767
30
0.0
 70
     32
  0
VERTEX
  8
MY3DLAYER
10
186.694843709708
20
75.0606601717799
30
0.0
 70
     32
  0
VERTEX
  8
MY3DLAYER
10
186.456465775811
20
74.75
30
0.0
 70
     32
  0
VERTEX
  8
MY3DLAYER
10
186.306615142054
20
74.3882285676538
30
0.0
 70
     32
  0
VERTEX
  8
MY3DLAYER
10
186.255503881487
20
74.0
30
0.0
 70
     32
  0
VERTEX
  8
MY3DLAYER
10
186.306615142054
20
73.6117714323462
30
0.0
 70
     32
  0
VERTEX
  8
MY3DLAYER
10
186.456465775811
20
73.25
30
0.0
 70
     32
  0
VERTEX
  8
MY3DLAYER
10
186.694843709708
20
72.9393398282202
30
0.0
 70
     32
  0
VERTEX
  8
MY3DLAYER
10
187.005503881487
20
72.7009618943234
30
0.0
 70
     32
  0
VERTEX
  8
MY3DLAYER
10
187.367275313834
20
72.5511112605664
30
0.0
 70
     32
  0
VERTEX
  8
MY3DLAYER
10
187.755503881487
20
72.5
30
0.0
 70
     32
  0
VERTEX
  8
MY3DLAYER
10
188.143732449141
20
72.5511112605664
30
0.0
 70
     32
  0
VERTEX
  8
MY3DLAYER
10
188.505503881487
20
72.7009618943234
30
0.0
 70
     32
  0
VERTEX
  8
MY3DLAYER
10
188.816164053267
20
72.9393398282201
30
0.0
 70
     32
  0
VERTEX
  8
MY3DLAYER
10
189.054541987164
20
73.25
30
0.0
 70
     32
  0
VERTEX
  8
MY3DLAYER
10
189.204392620921
20
73.6117714323462
30
0.0
 70
     32
  0
VERTEX
  8
MY3DLAYER
10
189.255503881487
20
74.0
30
0.0
 70
     32
  0
SEQEND
  0
POLYLINE
 8
Layer0
 66
     1
70
    8
 10
0.0
 20
 0.0
 30
0.0
  0
VERTEX
  8
MY3DLAYER
10
144.255503881488
20
74.0
30
0.0
 70
     32
  0
VERTEX
  8
MY3DLAYER
10
144.204392620921
20
74.3882285676538
30
0.0
 70
     32
  0
VERTEX
  8
MY3DLAYER
10
144.054541987164
20
74.75
30
0.0
 70
     32
  0
VERTEX
  8
MY3DLAYER
10
143.816164053267
20
75.0606601717799
30
0.0
 70
     32
  0
VERTEX
  8
MY3DLAYER
10
143.505503881488
20
75.2990381056767
30
0.0
 70
     32
  0
VERTEX
  8
MY3DLAYER
10
143.143732449141
20
75.4488887394337
30
0.0
 70
     32
  0
VERTEX
  8
MY3DLAYER
10
142.755503881488
20
75.5000000000001
30
0.0
 70
     32
  0
VERTEX
  8
MY3DLAYER
10
142.367275313834
20
75.4488887394337
30
0.0
 70
     32
  0
VERTEX
  8
MY3DLAYER
10
142.005503881488
20
75.2990381056767
30
0.0
 70
     32
  0
VERTEX
  8
MY3DLAYER
10
141.694843709708
20
75.0606601717799
30
0.0
 70
     32
  0
VERTEX
  8
MY3DLAYER
10
141.456465775811
20
74.75
30
0.0
 70
     32
  0
VERTEX
  8
MY3DLAYER
10
141.306615142054
20
74.3882285676538
30
0.0
 70
     32
  0
VERTEX
  8
MY3DLAYER
10
141.255503881488
20
74.0
30
0.0
 70
     32
  0
VERTEX
  8
MY3DLAYER
10
141.306615142054
20
73.6117714323462
30
0.0
 70
     32
  0
VERTEX
  8
MY3DLAYER
10
141.456465775811
20
73.25
30
0.0
 70
     32
  0
VERTEX
  8
MY3DLAYER
10
141.694843709708
20
72.9393398282202
30
0.0
 70
     32
  0
VERTEX
  8
MY3DLAYER
10
142.005503881488
20
72.7009618943234
30
0.0
 70
     32
  0
VERTEX
  8
MY3DLAYER
10
142.367275313834
20
72.5511112605664
30
0.0
 70
     32
  0
VERTEX
  8
MY3DLAYER
10
142.755503881488
20
72.5
30
0.0
 70
     32
  0
VERTEX
  8
MY3DLAYER
10
143.143732449141
20
72.5511112605664
30
0.0
 70
     32
  0
VERTEX
  8
MY3DLAYER
10
143.505503881488
20
72.7009618943234
30
0.0
 70
     32
  0
VERTEX
  8
MY3DLAYER
10
143.816164053267
20
72.9393398282201
30
0.0
 70
     32
  0
VERTEX
  8
MY3DLAYER
10
144.054541987164
20
73.25
30
0.0
 70
     32
  0
VERTEX
  8
MY3DLAYER
10
144.204392620921
20
73.6117714323462
30
0.0
 70
     32
  0
VERTEX
  8
MY3DLAYER
10
144.255503881488
20
74.0
30
0.0
 70
     32
  0
SEQEND
  0
POLYLINE
 8
Layer0
 66
     1
70
    8
 10
0.0
 20
 0.0
 30
0.0
  0
VERTEX
  8
MY3DLAYER
10
144.255503881488
20
3.99999999999999
30
0.0
 70
     32
  0
VERTEX
  8
MY3DLAYER
10
144.204392620921
20
4.38822856765377
30
0.0
 70
     32
  0
VERTEX
  8
MY3DLAYER
10
144.054541987164
20
4.75
30
0.0
 70
     32
  0
VERTEX
  8
MY3DLAYER
10
143.816164053267
20
5.06066017177982
30
0.0
 70
     32
  0
VERTEX
  8
MY3DLAYER
10
143.505503881488
20
5.29903810567667
30
0.0
 70
     32
  0
VERTEX
  8
MY3DLAYER
10
143.143732449141
20
5.44888873943362
30
0.0
 70
     32
  0
VERTEX
  8
MY3DLAYER
10
142.755503881488
20
5.50000000000001
30
0.0
 70
     32
  0
VERTEX
  8
MY3DLAYER
10
142.367275313834
20
5.44888873943362
30
0.0
 70
     32
  0
VERTEX
  8
MY3DLAYER
10
142.005503881488
20
5.29903810567667
30
0.0
 70
     32
  0
VERTEX
  8
MY3DLAYER
10
141.694843709708
20
5.06066017177984
30
0.0
 70
     32
  0
VERTEX
  8
MY3DLAYER
10
141.456465775811
20
4.75
30
0.0
 70
     32
  0
VERTEX
  8
MY3DLAYER
10
141.306615142054
20
4.38822856765377
30
0.0
 70
     32
  0
VERTEX
  8
MY3DLAYER
10
141.255503881488
20
3.99999999999999
30
0.0
 70
     32
  0
VERTEX
  8
MY3DLAYER
10
141.306615142054
20
3.61177143234621
30
0.0
 70
     32
  0
VERTEX
  8
MY3DLAYER
10
141.456465775811
20
3.24999999999998
30
0.0
 70
     32
  0
VERTEX
  8
MY3DLAYER
10
141.694843709708
20
2.93933982822017
30
0.0
 70
     32
  0
VERTEX
  8
MY3DLAYER
10
142.005503881488
20
2.70096189432332
30
0.0
 70
     32
  0
VERTEX
  8
MY3DLAYER
10
142.367275313834
20
2.55111126056637
30
0.0
 70
     32
  0
VERTEX
  8
MY3DLAYER
10
142.755503881488
20
2.49999999999997
30
0.0
 70
     32
  0
VERTEX
  8
MY3DLAYER
10
143.143732449141
20
2.55111126056637
30
0.0
 70
     32
  0
VERTEX
  8
MY3DLAYER
10
143.505503881488
20
2.70096189432332
30
0.0
 70
     32
  0
VERTEX
  8
MY3DLAYER
10
143.816164053267
20
2.93933982822015
30
0.0
 70
     32
  0
VERTEX
  8
MY3DLAYER
10
144.054541987164
20
3.24999999999998
30
0.0
 70
     32
  0
VERTEX
  8
MY3DLAYER
10
144.204392620921
20
3.61177143234621
30
0.0
 70
     32
  0
VERTEX
  8
MY3DLAYER
10
144.255503881488
20
3.99999999999999
30
0.0
 70
     32
  0
SEQEND
  0
POLYLINE
 8
Layer0
 66
     1
70
    8
 10
0.0
 20
 0.0
 30
0.0
  0
VERTEX
  8
MY3DLAYER
10
189.204392620921
20
4.38822856765377
30
0.0
 70
     32
  0
VERTEX
  8
MY3DLAYER
10
189.054541987164
20
4.75
30
0.0
 70
     32
  0
VERTEX
  8
MY3DLAYER
10
188.816164053267
20
5.06066017177982
30
0.0
 70
     32
  0
VERTEX
  8
MY3DLAYER
10
188.505503881487
20
5.29903810567667
30
0.0
 70
     32
  0
VERTEX
  8
MY3DLAYER
10
188.143732449141
20
5.44888873943362
30
0.0
 70
     32
  0
VERTEX
  8
MY3DLAYER
10
187.755503881487
20
5.50000000000001
30
0.0
 70
     32
  0
VERTEX
  8
MY3DLAYER
10
187.367275313834
20
5.44888873943362
30
0.0
 70
     32
  0
VERTEX
  8
MY3DLAYER
10
187.005503881487
20
5.29903810567667
30
0.0
 70
     32
  0
VERTEX
  8
MY3DLAYER
10
186.694843709708
20
5.06066017177984
30
0.0
 70
     32
  0
VERTEX
  8
MY3DLAYER
10
186.456465775811
20
4.75
30
0.0
 70
     32
  0
VERTEX
  8
MY3DLAYER
10
186.306615142054
20
4.38822856765377
30
0.0
 70
     32
  0
VERTEX
  8
MY3DLAYER
10
186.255503881487
20
3.99999999999999
30
0.0
 70
     32
  0
VERTEX
  8
MY3DLAYER
10
186.306615142054
20
3.61177143234621
30
0.0
 70
     32
  0
VERTEX
  8
MY3DLAYER
10
186.456465775811
20
3.24999999999998
30
0.0
 70
     32
  0
VERTEX
  8
MY3DLAYER
10
186.694843709708
20
2.93933982822017
30
0.0
 70
     32
  0
VERTEX
  8
MY3DLAYER
10
187.005503881487
20
2.70096189432332
30
0.0
 70
     32
  0
VERTEX
  8
MY3DLAYER
10
187.367275313834
20
2.55111126056637
30
0.0
 70
     32
  0
VERTEX
  8
MY3DLAYER
10
187.755503881487
20
2.49999999999997
30
0.0
 70
     32
  0
VERTEX
  8
MY3DLAYER
10
188.143732449141
20
2.55111126056637
30
0.0
 70
     32
  0
VERTEX
  8
MY3DLAYER
10
188.505503881487
20
2.70096189432332
30
0.0
 70
     32
  0
VERTEX
  8
MY3DLAYER
10
188.816164053267
20
2.93933982822015
30
0.0
 70
     32
  0
VERTEX
  8
MY3DLAYER
10
189.054541987164
20
3.24999999999998
30
0.0
 70
     32
  0
VERTEX
  8
MY3DLAYER
10
189.204392620921
20
3.61177143234621
30
0.0
 70
     32
  0
VERTEX
  8
MY3DLAYER
10
189.255503881487
20
3.99999999999999
30
0.0
 70
     32
  0
VERTEX
  8
MY3DLAYER
10
189.204392620921
20
4.38822856765377
30
0.0
 70
     32
  0
SEQEND
  0
POLYLINE
 8
Layer0
 66
     1
70
    8
 10
0.0
 20
 0.0
 30
0.0
  0
VERTEX
  8
MY3DLAYER
10
217.755503881487
20
0.0
30
0.0
 70
     32
  0
VERTEX
  8
MY3DLAYER
10
197.755503881487
20
0.0
30
0.0
 70
     32
  0
VERTEX
  8
MY3DLAYER
10
197.755503881487
20
78.0000000000001
30
0.0
 70
     32
  0
VERTEX
  8
MY3DLAYER
10
217.755503881487
20
78.0000000000001
30
0.0
 70
     32
  0
VERTEX
  8
MY3DLAYER
10
217.755503881487
20
0.0
30
0.0
 70
     32
  0
SEQEND
  0
POLYLINE
 8
Layer0
 66
     1
70
    8
 10
0.0
 20
 0.0
 30
0.0
  0
VERTEX
  8
MY3DLAYER
10
210.005503881487
20
11.4999999999999
30
0.0
 70
     32
  0
VERTEX
  8
MY3DLAYER
10
210.005503881487
20
66.4999999999998
30
0.0
 70
     32
  0
VERTEX
  8
MY3DLAYER
10
205.505503881487
20
66.4999999999998
30
0.0
 70
     32
  0
VERTEX
  8
MY3DLAYER
10
205.505503881487
20
11.4999999999999
30
0.0
 70
     32
  0
VERTEX
  8
MY3DLAYER
10
210.005503881487
20
11.4999999999999
30
0.0
 70
     32
  0
SEQEND
 0
ENDSEC
 0
EOF
