 0
SECTION
 2
ENTITIES
  0
POLYLINE
 8
Layer0
 66
     1
70
    8
 10
0.0
 20
 0.0
 30
0.0
  0
VERTEX
  8
MY3DLAYER
10
138.408259476087
20
0.0
30
0.0
 70
     32
  0
VERTEX
  8
MY3DLAYER
10
138.408259476087
20
11.4999999999999
30
0.0
 70
     32
  0
VERTEX
  8
MY3DLAYER
10
187.408259476087
20
11.4999999999999
30
0.0
 70
     32
  0
VERTEX
  8
MY3DLAYER
10
187.408259476087
20
66.4999999999998
30
0.0
 70
     32
  0
VERTEX
  8
MY3DLAYER
10
138.408259476087
20
66.4999999999998
30
0.0
 70
     32
  0
VERTEX
  8
MY3DLAYER
10
138.408259476087
20
77.9999999999999
30
0.0
 70
     32
  0
VERTEX
  8
MY3DLAYER
10
191.408259476087
20
77.9999999999999
30
0.0
 70
     32
  0
VERTEX
  8
MY3DLAYER
10
191.408259476087
20
0.0
30
0.0
 70
     32
  0
VERTEX
  8
MY3DLAYER
10
138.408259476087
20
0.0
30
0.0
 70
     32
  0
SEQEND
  0
POLYLINE
 8
Layer0
 66
     1
70
    8
 10
0.0
 20
 0.0
 30
0.0
  0
VERTEX
  8
MY3DLAYER
10
188.908259476087
20
73.9999999999997
30
0.0
 70
     32
  0
VERTEX
  8
MY3DLAYER
10
188.857148215521
20
74.3882285676536
30
0.0
 70
     32
  0
VERTEX
  8
MY3DLAYER
10
188.707297581764
20
74.7499999999997
30
0.0
 70
     32
  0
VERTEX
  8
MY3DLAYER
10
188.468919647867
20
75.0606601717796
30
0.0
 70
     32
  0
VERTEX
  8
MY3DLAYER
10
188.158259476087
20
75.2990381056765
30
0.0
 70
     32
  0
VERTEX
  8
MY3DLAYER
10
187.796488043741
20
75.4488887394335
30
0.0
 70
     32
  0
VERTEX
  8
MY3DLAYER
10
187.408259476087
20
75.4999999999998
30
0.0
 70
     32
  0
VERTEX
  8
MY3DLAYER
10
187.020030908433
20
75.4488887394335
30
0.0
 70
     32
  0
VERTEX
  8
MY3DLAYER
10
186.658259476087
20
75.2990381056765
30
0.0
 70
     32
  0
VERTEX
  8
MY3DLAYER
10
186.347599304307
20
75.0606601717798
30
0.0
 70
     32
  0
VERTEX
  8
MY3DLAYER
10
186.10922137041
20
74.7499999999997
30
0.0
 70
     32
  0
VERTEX
  8
MY3DLAYER
10
185.959370736654
20
74.3882285676536
30
0.0
 70
     32
  0
VERTEX
  8
MY3DLAYER
10
185.908259476087
20
73.9999999999997
30
0.0
 70
     32
  0
VERTEX
  8
MY3DLAYER
10
185.959370736654
20
73.611771432346
30
0.0
 70
     32
  0
VERTEX
  8
MY3DLAYER
10
186.10922137041
20
73.2499999999997
30
0.0
 70
     32
  0
VERTEX
  8
MY3DLAYER
10
186.347599304307
20
72.9393398282199
30
0.0
 70
     32
  0
VERTEX
  8
MY3DLAYER
10
186.658259476087
20
72.7009618943231
30
0.0
 70
     32
  0
VERTEX
  8
MY3DLAYER
10
187.020030908433
20
72.5511112605662
30
0.0
 70
     32
  0
VERTEX
  8
MY3DLAYER
10
187.408259476087
20
72.4999999999997
30
0.0
 70
     32
  0
VERTEX
  8
MY3DLAYER
10
187.796488043741
20
72.5511112605662
30
0.0
 70
     32
  0
VERTEX
  8
MY3DLAYER
10
188.158259476087
20
72.7009618943231
30
0.0
 70
     32
  0
VERTEX
  8
MY3DLAYER
10
188.468919647867
20
72.9393398282199
30
0.0
 70
     32
  0
VERTEX
  8
MY3DLAYER
10
188.707297581764
20
73.2499999999997
30
0.0
 70
     32
  0
VERTEX
  8
MY3DLAYER
10
188.857148215521
20
73.611771432346
30
0.0
 70
     32
  0
VERTEX
  8
MY3DLAYER
10
188.908259476087
20
73.9999999999997
30
0.0
 70
     32
  0
SEQEND
  0
POLYLINE
 8
Layer0
 66
     1
70
    8
 10
0.0
 20
 0.0
 30
0.0
  0
VERTEX
  8
MY3DLAYER
10
143.908259476087
20
73.9999999999997
30
0.0
 70
     32
  0
VERTEX
  8
MY3DLAYER
10
143.857148215521
20
74.3882285676536
30
0.0
 70
     32
  0
VERTEX
  8
MY3DLAYER
10
143.707297581764
20
74.7499999999997
30
0.0
 70
     32
  0
VERTEX
  8
MY3DLAYER
10
143.468919647867
20
75.0606601717796
30
0.0
 70
     32
  0
VERTEX
  8
MY3DLAYER
10
143.158259476087
20
75.2990381056765
30
0.0
 70
     32
  0
VERTEX
  8
MY3DLAYER
10
142.796488043741
20
75.4488887394335
30
0.0
 70
     32
  0
VERTEX
  8
MY3DLAYER
10
142.408259476087
20
75.4999999999998
30
0.0
 70
     32
  0
VERTEX
  8
MY3DLAYER
10
142.020030908433
20
75.4488887394335
30
0.0
 70
     32
  0
VERTEX
  8
MY3DLAYER
10
141.658259476087
20
75.2990381056765
30
0.0
 70
     32
  0
VERTEX
  8
MY3DLAYER
10
141.347599304307
20
75.0606601717798
30
0.0
 70
     32
  0
VERTEX
  8
MY3DLAYER
10
141.10922137041
20
74.7499999999997
30
0.0
 70
     32
  0
VERTEX
  8
MY3DLAYER
10
140.959370736654
20
74.3882285676536
30
0.0
 70
     32
  0
VERTEX
  8
MY3DLAYER
10
140.908259476087
20
73.9999999999997
30
0.0
 70
     32
  0
VERTEX
  8
MY3DLAYER
10
140.959370736654
20
73.611771432346
30
0.0
 70
     32
  0
VERTEX
  8
MY3DLAYER
10
141.10922137041
20
73.2499999999997
30
0.0
 70
     32
  0
VERTEX
  8
MY3DLAYER
10
141.347599304307
20
72.9393398282199
30
0.0
 70
     32
  0
VERTEX
  8
MY3DLAYER
10
141.658259476087
20
72.7009618943231
30
0.0
 70
     32
  0
VERTEX
  8
MY3DLAYER
10
142.020030908433
20
72.5511112605662
30
0.0
 70
     32
  0
VERTEX
  8
MY3DLAYER
10
142.408259476087
20
72.4999999999997
30
0.0
 70
     32
  0
VERTEX
  8
MY3DLAYER
10
142.796488043741
20
72.5511112605662
30
0.0
 70
     32
  0
VERTEX
  8
MY3DLAYER
10
143.158259476087
20
72.7009618943231
30
0.0
 70
     32
  0
VERTEX
  8
MY3DLAYER
10
143.468919647867
20
72.9393398282199
30
0.0
 70
     32
  0
VERTEX
  8
MY3DLAYER
10
143.707297581764
20
73.2499999999997
30
0.0
 70
     32
  0
VERTEX
  8
MY3DLAYER
10
143.857148215521
20
73.611771432346
30
0.0
 70
     32
  0
VERTEX
  8
MY3DLAYER
10
143.908259476087
20
73.9999999999997
30
0.0
 70
     32
  0
SEQEND
  0
POLYLINE
 8
Layer0
 66
     1
70
    8
 10
0.0
 20
 0.0
 30
0.0
  0
VERTEX
  8
MY3DLAYER
10
143.908259476087
20
4.00000000000002
30
0.0
 70
     32
  0
VERTEX
  8
MY3DLAYER
10
143.857148215521
20
4.38822856765373
30
0.0
 70
     32
  0
VERTEX
  8
MY3DLAYER
10
143.707297581764
20
4.75000000000002
30
0.0
 70
     32
  0
VERTEX
  8
MY3DLAYER
10
143.468919647867
20
5.06066017177979
30
0.0
 70
     32
  0
VERTEX
  8
MY3DLAYER
10
143.158259476087
20
5.29903810567667
30
0.0
 70
     32
  0
VERTEX
  8
MY3DLAYER
10
142.796488043741
20
5.4488887394336
30
0.0
 70
     32
  0
VERTEX
  8
MY3DLAYER
10
142.408259476087
20
5.50000000000001
30
0.0
 70
     32
  0
VERTEX
  8
MY3DLAYER
10
142.020030908433
20
5.4488887394336
30
0.0
 70
     32
  0
VERTEX
  8
MY3DLAYER
10
141.658259476087
20
5.29903810567667
30
0.0
 70
     32
  0
VERTEX
  8
MY3DLAYER
10
141.347599304307
20
5.06066017177979
30
0.0
 70
     32
  0
VERTEX
  8
MY3DLAYER
10
141.10922137041
20
4.75000000000002
30
0.0
 70
     32
  0
VERTEX
  8
MY3DLAYER
10
140.959370736654
20
4.38822856765373
30
0.0
 70
     32
  0
VERTEX
  8
MY3DLAYER
10
140.908259476087
20
4.00000000000002
30
0.0
 70
     32
  0
VERTEX
  8
MY3DLAYER
10
140.959370736654
20
3.61177143234621
30
0.0
 70
     32
  0
VERTEX
  8
MY3DLAYER
10
141.10922137041
20
3.25000000000001
30
0.0
 70
     32
  0
VERTEX
  8
MY3DLAYER
10
141.347599304307
20
2.93933982822012
30
0.0
 70
     32
  0
VERTEX
  8
MY3DLAYER
10
141.658259476087
20
2.70096189432334
30
0.0
 70
     32
  0
VERTEX
  8
MY3DLAYER
10
142.020030908433
20
2.55111126056632
30
0.0
 70
     32
  0
VERTEX
  8
MY3DLAYER
10
142.408259476087
20
2.5
30
0.0
 70
     32
  0
VERTEX
  8
MY3DLAYER
10
142.796488043741
20
2.55111126056632
30
0.0
 70
     32
  0
VERTEX
  8
MY3DLAYER
10
143.158259476087
20
2.70096189432334
30
0.0
 70
     32
  0
VERTEX
  8
MY3DLAYER
10
143.468919647867
20
2.93933982822012
30
0.0
 70
     32
  0
VERTEX
  8
MY3DLAYER
10
143.707297581764
20
3.25000000000001
30
0.0
 70
     32
  0
VERTEX
  8
MY3DLAYER
10
143.857148215521
20
3.61177143234621
30
0.0
 70
     32
  0
VERTEX
  8
MY3DLAYER
10
143.908259476087
20
4.00000000000002
30
0.0
 70
     32
  0
SEQEND
  0
POLYLINE
 8
Layer0
 66
     1
70
    8
 10
0.0
 20
 0.0
 30
0.0
  0
VERTEX
  8
MY3DLAYER
10
188.857148215521
20
4.38822856765373
30
0.0
 70
     32
  0
VERTEX
  8
MY3DLAYER
10
188.707297581764
20
4.75000000000002
30
0.0
 70
     32
  0
VERTEX
  8
MY3DLAYER
10
188.468919647867
20
5.06066017177979
30
0.0
 70
     32
  0
VERTEX
  8
MY3DLAYER
10
188.158259476087
20
5.29903810567667
30
0.0
 70
     32
  0
VERTEX
  8
MY3DLAYER
10
187.796488043741
20
5.4488887394336
30
0.0
 70
     32
  0
VERTEX
  8
MY3DLAYER
10
187.408259476087
20
5.50000000000001
30
0.0
 70
     32
  0
VERTEX
  8
MY3DLAYER
10
187.020030908433
20
5.4488887394336
30
0.0
 70
     32
  0
VERTEX
  8
MY3DLAYER
10
186.658259476087
20
5.29903810567667
30
0.0
 70
     32
  0
VERTEX
  8
MY3DLAYER
10
186.347599304307
20
5.06066017177979
30
0.0
 70
     32
  0
VERTEX
  8
MY3DLAYER
10
186.10922137041
20
4.75000000000002
30
0.0
 70
     32
  0
VERTEX
  8
MY3DLAYER
10
185.959370736654
20
4.38822856765373
30
0.0
 70
     32
  0
VERTEX
  8
MY3DLAYER
10
185.908259476087
20
4.00000000000002
30
0.0
 70
     32
  0
VERTEX
  8
MY3DLAYER
10
185.959370736654
20
3.61177143234621
30
0.0
 70
     32
  0
VERTEX
  8
MY3DLAYER
10
186.10922137041
20
3.25000000000001
30
0.0
 70
     32
  0
VERTEX
  8
MY3DLAYER
10
186.347599304307
20
2.93933982822012
30
0.0
 70
     32
  0
VERTEX
  8
MY3DLAYER
10
186.658259476087
20
2.70096189432334
30
0.0
 70
     32
  0
VERTEX
  8
MY3DLAYER
10
187.020030908433
20
2.55111126056632
30
0.0
 70
     32
  0
VERTEX
  8
MY3DLAYER
10
187.408259476087
20
2.5
30
0.0
 70
     32
  0
VERTEX
  8
MY3DLAYER
10
187.796488043741
20
2.55111126056632
30
0.0
 70
     32
  0
VERTEX
  8
MY3DLAYER
10
188.158259476087
20
2.70096189432334
30
0.0
 70
     32
  0
VERTEX
  8
MY3DLAYER
10
188.468919647867
20
2.93933982822012
30
0.0
 70
     32
  0
VERTEX
  8
MY3DLAYER
10
188.707297581764
20
3.25000000000001
30
0.0
 70
     32
  0
VERTEX
  8
MY3DLAYER
10
188.857148215521
20
3.61177143234621
30
0.0
 70
     32
  0
VERTEX
  8
MY3DLAYER
10
188.908259476087
20
4.00000000000002
30
0.0
 70
     32
  0
VERTEX
  8
MY3DLAYER
10
188.857148215521
20
4.38822856765373
30
0.0
 70
     32
  0
SEQEND
  0
POLYLINE
 8
Layer0
 66
     1
70
    8
 10
0.0
 20
 0.0
 30
0.0
  0
VERTEX
  8
MY3DLAYER
10
260.577011571783
20
0.0
30
0.0
 70
     32
  0
VERTEX
  8
MY3DLAYER
10
207.577011571783
20
0.0
30
0.0
 70
     32
  0
VERTEX
  8
MY3DLAYER
10
207.577011571783
20
78.0
30
0.0
 70
     32
  0
VERTEX
  8
MY3DLAYER
10
260.577011571783
20
78.0
30
0.0
 70
     32
  0
VERTEX
  8
MY3DLAYER
10
260.577011571783
20
0.0
30
0.0
 70
     32
  0
SEQEND
  0
POLYLINE
 8
Layer0
 66
     1
70
    8
 10
0.0
 20
 0.0
 30
0.0
  0
VERTEX
  8
MY3DLAYER
10
258.077011571783
20
74.0
30
0.0
 70
     32
  0
VERTEX
  8
MY3DLAYER
10
258.025900311217
20
74.3882285676538
30
0.0
 70
     32
  0
VERTEX
  8
MY3DLAYER
10
257.87604967746
20
74.75
30
0.0
 70
     32
  0
VERTEX
  8
MY3DLAYER
10
257.637671743563
20
75.0606601717798
30
0.0
 70
     32
  0
VERTEX
  8
MY3DLAYER
10
257.327011571783
20
75.2990381056767
30
0.0
 70
     32
  0
VERTEX
  8
MY3DLAYER
10
256.965240139437
20
75.4488887394336
30
0.0
 70
     32
  0
VERTEX
  8
MY3DLAYER
10
256.577011571783
20
75.5000000000001
30
0.0
 70
     32
  0
VERTEX
  8
MY3DLAYER
10
256.188783004129
20
75.4488887394336
30
0.0
 70
     32
  0
VERTEX
  8
MY3DLAYER
10
255.827011571783
20
75.2990381056767
30
0.0
 70
     32
  0
VERTEX
  8
MY3DLAYER
10
255.516351400003
20
75.0606601717798
30
0.0
 70
     32
  0
VERTEX
  8
MY3DLAYER
10
255.277973466106
20
74.75
30
0.0
 70
     32
  0
VERTEX
  8
MY3DLAYER
10
255.128122832349
20
74.3882285676538
30
0.0
 70
     32
  0
VERTEX
  8
MY3DLAYER
10
255.077011571783
20
74.0
30
0.0
 70
     32
  0
VERTEX
  8
MY3DLAYER
10
255.128122832349
20
73.6117714323462
30
0.0
 70
     32
  0
VERTEX
  8
MY3DLAYER
10
255.277973466106
20
73.25
30
0.0
 70
     32
  0
VERTEX
  8
MY3DLAYER
10
255.516351400003
20
72.9393398282202
30
0.0
 70
     32
  0
VERTEX
  8
MY3DLAYER
10
255.827011571783
20
72.7009618943233
30
0.0
 70
     32
  0
VERTEX
  8
MY3DLAYER
10
256.188783004129
20
72.5511112605664
30
0.0
 70
     32
  0
VERTEX
  8
MY3DLAYER
10
256.577011571783
20
72.5
30
0.0
 70
     32
  0
VERTEX
  8
MY3DLAYER
10
256.965240139437
20
72.5511112605664
30
0.0
 70
     32
  0
VERTEX
  8
MY3DLAYER
10
257.327011571783
20
72.7009618943233
30
0.0
 70
     32
  0
VERTEX
  8
MY3DLAYER
10
257.637671743563
20
72.9393398282201
30
0.0
 70
     32
  0
VERTEX
  8
MY3DLAYER
10
257.87604967746
20
73.25
30
0.0
 70
     32
  0
VERTEX
  8
MY3DLAYER
10
258.025900311217
20
73.6117714323462
30
0.0
 70
     32
  0
VERTEX
  8
MY3DLAYER
10
258.077011571783
20
74.0
30
0.0
 70
     32
  0
SEQEND
  0
POLYLINE
 8
Layer0
 66
     1
70
    8
 10
0.0
 20
 0.0
 30
0.0
  0
VERTEX
  8
MY3DLAYER
10
213.077011571783
20
74.0
30
0.0
 70
     32
  0
VERTEX
  8
MY3DLAYER
10
213.025900311217
20
74.3882285676538
30
0.0
 70
     32
  0
VERTEX
  8
MY3DLAYER
10
212.87604967746
20
74.75
30
0.0
 70
     32
  0
VERTEX
  8
MY3DLAYER
10
212.637671743563
20
75.0606601717798
30
0.0
 70
     32
  0
VERTEX
  8
MY3DLAYER
10
212.327011571783
20
75.2990381056767
30
0.0
 70
     32
  0
VERTEX
  8
MY3DLAYER
10
211.965240139437
20
75.4488887394336
30
0.0
 70
     32
  0
VERTEX
  8
MY3DLAYER
10
211.577011571783
20
75.5000000000001
30
0.0
 70
     32
  0
VERTEX
  8
MY3DLAYER
10
211.188783004129
20
75.4488887394336
30
0.0
 70
     32
  0
VERTEX
  8
MY3DLAYER
10
210.827011571783
20
75.2990381056767
30
0.0
 70
     32
  0
VERTEX
  8
MY3DLAYER
10
210.516351400003
20
75.0606601717798
30
0.0
 70
     32
  0
VERTEX
  8
MY3DLAYER
10
210.277973466106
20
74.75
30
0.0
 70
     32
  0
VERTEX
  8
MY3DLAYER
10
210.128122832349
20
74.3882285676538
30
0.0
 70
     32
  0
VERTEX
  8
MY3DLAYER
10
210.077011571783
20
74.0
30
0.0
 70
     32
  0
VERTEX
  8
MY3DLAYER
10
210.128122832349
20
73.6117714323462
30
0.0
 70
     32
  0
VERTEX
  8
MY3DLAYER
10
210.277973466106
20
73.25
30
0.0
 70
     32
  0
VERTEX
  8
MY3DLAYER
10
210.516351400003
20
72.9393398282202
30
0.0
 70
     32
  0
VERTEX
  8
MY3DLAYER
10
210.827011571783
20
72.7009618943233
30
0.0
 70
     32
  0
VERTEX
  8
MY3DLAYER
10
211.188783004129
20
72.5511112605664
30
0.0
 70
     32
  0
VERTEX
  8
MY3DLAYER
10
211.577011571783
20
72.5
30
0.0
 70
     32
  0
VERTEX
  8
MY3DLAYER
10
211.965240139437
20
72.5511112605664
30
0.0
 70
     32
  0
VERTEX
  8
MY3DLAYER
10
212.327011571783
20
72.7009618943233
30
0.0
 70
     32
  0
VERTEX
  8
MY3DLAYER
10
212.637671743563
20
72.9393398282201
30
0.0
 70
     32
  0
VERTEX
  8
MY3DLAYER
10
212.87604967746
20
73.25
30
0.0
 70
     32
  0
VERTEX
  8
MY3DLAYER
10
213.025900311217
20
73.6117714323462
30
0.0
 70
     32
  0
VERTEX
  8
MY3DLAYER
10
213.077011571783
20
74.0
30
0.0
 70
     32
  0
SEQEND
  0
POLYLINE
 8
Layer0
 66
     1
70
    8
 10
0.0
 20
 0.0
 30
0.0
  0
VERTEX
  8
MY3DLAYER
10
213.077011571783
20
3.99999999999999
30
0.0
 70
     32
  0
VERTEX
  8
MY3DLAYER
10
213.025900311217
20
4.38822856765377
30
0.0
 70
     32
  0
VERTEX
  8
MY3DLAYER
10
212.87604967746
20
4.75
30
0.0
 70
     32
  0
VERTEX
  8
MY3DLAYER
10
212.637671743563
20
5.06066017177982
30
0.0
 70
     32
  0
VERTEX
  8
MY3DLAYER
10
212.327011571783
20
5.29903810567667
30
0.0
 70
     32
  0
VERTEX
  8
MY3DLAYER
10
211.965240139437
20
5.44888873943362
30
0.0
 70
     32
  0
VERTEX
  8
MY3DLAYER
10
211.577011571783
20
5.50000000000001
30
0.0
 70
     32
  0
VERTEX
  8
MY3DLAYER
10
211.188783004129
20
5.44888873943362
30
0.0
 70
     32
  0
VERTEX
  8
MY3DLAYER
10
210.827011571783
20
5.29903810567667
30
0.0
 70
     32
  0
VERTEX
  8
MY3DLAYER
10
210.516351400003
20
5.06066017177984
30
0.0
 70
     32
  0
VERTEX
  8
MY3DLAYER
10
210.277973466106
20
4.75
30
0.0
 70
     32
  0
VERTEX
  8
MY3DLAYER
10
210.128122832349
20
4.38822856765377
30
0.0
 70
     32
  0
VERTEX
  8
MY3DLAYER
10
210.077011571783
20
3.99999999999999
30
0.0
 70
     32
  0
VERTEX
  8
MY3DLAYER
10
210.128122832349
20
3.61177143234621
30
0.0
 70
     32
  0
VERTEX
  8
MY3DLAYER
10
210.277973466106
20
3.24999999999998
30
0.0
 70
     32
  0
VERTEX
  8
MY3DLAYER
10
210.516351400003
20
2.93933982822017
30
0.0
 70
     32
  0
VERTEX
  8
MY3DLAYER
10
210.827011571783
20
2.70096189432332
30
0.0
 70
     32
  0
VERTEX
  8
MY3DLAYER
10
211.188783004129
20
2.55111126056637
30
0.0
 70
     32
  0
VERTEX
  8
MY3DLAYER
10
211.577011571783
20
2.49999999999997
30
0.0
 70
     32
  0
VERTEX
  8
MY3DLAYER
10
211.965240139437
20
2.55111126056637
30
0.0
 70
     32
  0
VERTEX
  8
MY3DLAYER
10
212.327011571783
20
2.70096189432332
30
0.0
 70
     32
  0
VERTEX
  8
MY3DLAYER
10
212.637671743563
20
2.93933982822015
30
0.0
 70
     32
  0
VERTEX
  8
MY3DLAYER
10
212.87604967746
20
3.24999999999998
30
0.0
 70
     32
  0
VERTEX
  8
MY3DLAYER
10
213.025900311217
20
3.61177143234621
30
0.0
 70
     32
  0
VERTEX
  8
MY3DLAYER
10
213.077011571783
20
3.99999999999999
30
0.0
 70
     32
  0
SEQEND
  0
POLYLINE
 8
Layer0
 66
     1
70
    8
 10
0.0
 20
 0.0
 30
0.0
  0
VERTEX
  8
MY3DLAYER
10
258.025900311217
20
4.38822856765377
30
0.0
 70
     32
  0
VERTEX
  8
MY3DLAYER
10
257.87604967746
20
4.75
30
0.0
 70
     32
  0
VERTEX
  8
MY3DLAYER
10
257.637671743563
20
5.06066017177982
30
0.0
 70
     32
  0
VERTEX
  8
MY3DLAYER
10
257.327011571783
20
5.29903810567667
30
0.0
 70
     32
  0
VERTEX
  8
MY3DLAYER
10
256.965240139437
20
5.44888873943362
30
0.0
 70
     32
  0
VERTEX
  8
MY3DLAYER
10
256.577011571783
20
5.50000000000001
30
0.0
 70
     32
  0
VERTEX
  8
MY3DLAYER
10
256.188783004129
20
5.44888873943362
30
0.0
 70
     32
  0
VERTEX
  8
MY3DLAYER
10
255.827011571783
20
5.29903810567667
30
0.0
 70
     32
  0
VERTEX
  8
MY3DLAYER
10
255.516351400003
20
5.06066017177984
30
0.0
 70
     32
  0
VERTEX
  8
MY3DLAYER
10
255.277973466106
20
4.75
30
0.0
 70
     32
  0
VERTEX
  8
MY3DLAYER
10
255.128122832349
20
4.38822856765377
30
0.0
 70
     32
  0
VERTEX
  8
MY3DLAYER
10
255.077011571783
20
3.99999999999999
30
0.0
 70
     32
  0
VERTEX
  8
MY3DLAYER
10
255.128122832349
20
3.61177143234621
30
0.0
 70
     32
  0
VERTEX
  8
MY3DLAYER
10
255.277973466106
20
3.24999999999998
30
0.0
 70
     32
  0
VERTEX
  8
MY3DLAYER
10
255.516351400003
20
2.93933982822017
30
0.0
 70
     32
  0
VERTEX
  8
MY3DLAYER
10
255.827011571783
20
2.70096189432332
30
0.0
 70
     32
  0
VERTEX
  8
MY3DLAYER
10
256.188783004129
20
2.55111126056637
30
0.0
 70
     32
  0
VERTEX
  8
MY3DLAYER
10
256.577011571783
20
2.49999999999997
30
0.0
 70
     32
  0
VERTEX
  8
MY3DLAYER
10
256.965240139437
20
2.55111126056637
30
0.0
 70
     32
  0
VERTEX
  8
MY3DLAYER
10
257.327011571783
20
2.70096189432332
30
0.0
 70
     32
  0
VERTEX
  8
MY3DLAYER
10
257.637671743563
20
2.93933982822015
30
0.0
 70
     32
  0
VERTEX
  8
MY3DLAYER
10
257.87604967746
20
3.24999999999998
30
0.0
 70
     32
  0
VERTEX
  8
MY3DLAYER
10
258.025900311217
20
3.61177143234621
30
0.0
 70
     32
  0
VERTEX
  8
MY3DLAYER
10
258.077011571783
20
3.99999999999999
30
0.0
 70
     32
  0
VERTEX
  8
MY3DLAYER
10
258.025900311217
20
4.38822856765377
30
0.0
 70
     32
  0
SEQEND
  0
POLYLINE
 8
Layer0
 66
     1
70
    8
 10
0.0
 20
 0.0
 30
0.0
  0
VERTEX
  8
MY3DLAYER
10
207.577011571783
20
78.0
30
0.0
 70
     32
  0
VERTEX
  8
MY3DLAYER
10
207.577011571783
20
0.0
30
0.0
 70
     32
  0
VERTEX
  8
MY3DLAYER
10
197.577011571783
20
0.0
30
0.0
 70
     32
  0
VERTEX
  8
MY3DLAYER
10
197.577011571783
20
78.0
30
0.0
 70
     32
  0
VERTEX
  8
MY3DLAYER
10
207.577011571783
20
78.0
30
0.0
 70
     32
  0
SEQEND
  0
POLYLINE
 8
Layer0
 66
     1
70
    8
 10
0.0
 20
 0.0
 30
0.0
  0
VERTEX
  8
MY3DLAYER
10
277.163763357575
20
78.0
30
0.0
 70
     32
  0
VERTEX
  8
MY3DLAYER
10
277.163763357575
20
0.0
30
0.0
 70
     32
  0
VERTEX
  8
MY3DLAYER
10
267.163763357575
20
0.0
30
0.0
 70
     32
  0
VERTEX
  8
MY3DLAYER
10
267.163763357575
20
78.0
30
0.0
 70
     32
  0
VERTEX
  8
MY3DLAYER
10
277.163763357575
20
78.0
30
0.0
 70
     32
  0
SEQEND
  0
POLYLINE
 8
Layer0
 66
     1
70
    8
 10
0.0
 20
 0.0
 30
0.0
  0
VERTEX
  8
MY3DLAYER
10
330.163763357575
20
0.0
30
0.0
 70
     32
  0
VERTEX
  8
MY3DLAYER
10
277.163763357575
20
0.0
30
0.0
 70
     32
  0
VERTEX
  8
MY3DLAYER
10
277.163763357575
20
78.0
30
0.0
 70
     32
  0
VERTEX
  8
MY3DLAYER
10
330.163763357575
20
78.0
30
0.0
 70
     32
  0
VERTEX
  8
MY3DLAYER
10
330.163763357575
20
0.0
30
0.0
 70
     32
  0
SEQEND
  0
POLYLINE
 8
Layer0
 66
     1
70
    8
 10
0.0
 20
 0.0
 30
0.0
  0
VERTEX
  8
MY3DLAYER
10
327.663763357575
20
74.0
30
0.0
 70
     32
  0
VERTEX
  8
MY3DLAYER
10
327.612652097008
20
74.3882285676538
30
0.0
 70
     32
  0
VERTEX
  8
MY3DLAYER
10
327.462801463251
20
74.75
30
0.0
 70
     32
  0
VERTEX
  8
MY3DLAYER
10
327.224423529354
20
75.0606601717798
30
0.0
 70
     32
  0
VERTEX
  8
MY3DLAYER
10
326.913763357575
20
75.2990381056767
30
0.0
 70
     32
  0
VERTEX
  8
MY3DLAYER
10
326.551991925228
20
75.4488887394336
30
0.0
 70
     32
  0
VERTEX
  8
MY3DLAYER
10
326.163763357575
20
75.5000000000001
30
0.0
 70
     32
  0
VERTEX
  8
MY3DLAYER
10
325.775534789921
20
75.4488887394336
30
0.0
 70
     32
  0
VERTEX
  8
MY3DLAYER
10
325.413763357575
20
75.2990381056767
30
0.0
 70
     32
  0
VERTEX
  8
MY3DLAYER
10
325.103103185795
20
75.0606601717798
30
0.0
 70
     32
  0
VERTEX
  8
MY3DLAYER
10
324.864725251898
20
74.75
30
0.0
 70
     32
  0
VERTEX
  8
MY3DLAYER
10
324.714874618141
20
74.3882285676538
30
0.0
 70
     32
  0
VERTEX
  8
MY3DLAYER
10
324.663763357575
20
74.0
30
0.0
 70
     32
  0
VERTEX
  8
MY3DLAYER
10
324.714874618141
20
73.6117714323462
30
0.0
 70
     32
  0
VERTEX
  8
MY3DLAYER
10
324.864725251898
20
73.25
30
0.0
 70
     32
  0
VERTEX
  8
MY3DLAYER
10
325.103103185795
20
72.9393398282202
30
0.0
 70
     32
  0
VERTEX
  8
MY3DLAYER
10
325.413763357575
20
72.7009618943233
30
0.0
 70
     32
  0
VERTEX
  8
MY3DLAYER
10
325.775534789921
20
72.5511112605664
30
0.0
 70
     32
  0
VERTEX
  8
MY3DLAYER
10
326.163763357575
20
72.5
30
0.0
 70
     32
  0
VERTEX
  8
MY3DLAYER
10
326.551991925228
20
72.5511112605664
30
0.0
 70
     32
  0
VERTEX
  8
MY3DLAYER
10
326.913763357575
20
72.7009618943233
30
0.0
 70
     32
  0
VERTEX
  8
MY3DLAYER
10
327.224423529354
20
72.9393398282201
30
0.0
 70
     32
  0
VERTEX
  8
MY3DLAYER
10
327.462801463251
20
73.25
30
0.0
 70
     32
  0
VERTEX
  8
MY3DLAYER
10
327.612652097008
20
73.6117714323462
30
0.0
 70
     32
  0
VERTEX
  8
MY3DLAYER
10
327.663763357575
20
74.0
30
0.0
 70
     32
  0
SEQEND
  0
POLYLINE
 8
Layer0
 66
     1
70
    8
 10
0.0
 20
 0.0
 30
0.0
  0
VERTEX
  8
MY3DLAYER
10
282.663763357575
20
74.0
30
0.0
 70
     32
  0
VERTEX
  8
MY3DLAYER
10
282.612652097008
20
74.3882285676538
30
0.0
 70
     32
  0
VERTEX
  8
MY3DLAYER
10
282.462801463251
20
74.75
30
0.0
 70
     32
  0
VERTEX
  8
MY3DLAYER
10
282.224423529355
20
75.0606601717798
30
0.0
 70
     32
  0
VERTEX
  8
MY3DLAYER
10
281.913763357575
20
75.2990381056767
30
0.0
 70
     32
  0
VERTEX
  8
MY3DLAYER
10
281.551991925228
20
75.4488887394336
30
0.0
 70
     32
  0
VERTEX
  8
MY3DLAYER
10
281.163763357575
20
75.5000000000001
30
0.0
 70
     32
  0
VERTEX
  8
MY3DLAYER
10
280.775534789921
20
75.4488887394336
30
0.0
 70
     32
  0
VERTEX
  8
MY3DLAYER
10
280.413763357575
20
75.2990381056767
30
0.0
 70
     32
  0
VERTEX
  8
MY3DLAYER
10
280.103103185795
20
75.0606601717798
30
0.0
 70
     32
  0
VERTEX
  8
MY3DLAYER
10
279.864725251898
20
74.75
30
0.0
 70
     32
  0
VERTEX
  8
MY3DLAYER
10
279.714874618141
20
74.3882285676538
30
0.0
 70
     32
  0
VERTEX
  8
MY3DLAYER
10
279.663763357575
20
74.0
30
0.0
 70
     32
  0
VERTEX
  8
MY3DLAYER
10
279.714874618141
20
73.6117714323462
30
0.0
 70
     32
  0
VERTEX
  8
MY3DLAYER
10
279.864725251898
20
73.25
30
0.0
 70
     32
  0
VERTEX
  8
MY3DLAYER
10
280.103103185795
20
72.9393398282202
30
0.0
 70
     32
  0
VERTEX
  8
MY3DLAYER
10
280.413763357575
20
72.7009618943233
30
0.0
 70
     32
  0
VERTEX
  8
MY3DLAYER
10
280.775534789921
20
72.5511112605664
30
0.0
 70
     32
  0
VERTEX
  8
MY3DLAYER
10
281.163763357575
20
72.5
30
0.0
 70
     32
  0
VERTEX
  8
MY3DLAYER
10
281.551991925228
20
72.5511112605664
30
0.0
 70
     32
  0
VERTEX
  8
MY3DLAYER
10
281.913763357575
20
72.7009618943233
30
0.0
 70
     32
  0
VERTEX
  8
MY3DLAYER
10
282.224423529355
20
72.9393398282201
30
0.0
 70
     32
  0
VERTEX
  8
MY3DLAYER
10
282.462801463251
20
73.25
30
0.0
 70
     32
  0
VERTEX
  8
MY3DLAYER
10
282.612652097008
20
73.6117714323462
30
0.0
 70
     32
  0
VERTEX
  8
MY3DLAYER
10
282.663763357575
20
74.0
30
0.0
 70
     32
  0
SEQEND
  0
POLYLINE
 8
Layer0
 66
     1
70
    8
 10
0.0
 20
 0.0
 30
0.0
  0
VERTEX
  8
MY3DLAYER
10
282.663763357575
20
3.99999999999999
30
0.0
 70
     32
  0
VERTEX
  8
MY3DLAYER
10
282.612652097008
20
4.38822856765377
30
0.0
 70
     32
  0
VERTEX
  8
MY3DLAYER
10
282.462801463251
20
4.75
30
0.0
 70
     32
  0
VERTEX
  8
MY3DLAYER
10
282.224423529355
20
5.06066017177982
30
0.0
 70
     32
  0
VERTEX
  8
MY3DLAYER
10
281.913763357575
20
5.29903810567667
30
0.0
 70
     32
  0
VERTEX
  8
MY3DLAYER
10
281.551991925228
20
5.44888873943362
30
0.0
 70
     32
  0
VERTEX
  8
MY3DLAYER
10
281.163763357575
20
5.50000000000001
30
0.0
 70
     32
  0
VERTEX
  8
MY3DLAYER
10
280.775534789921
20
5.44888873943362
30
0.0
 70
     32
  0
VERTEX
  8
MY3DLAYER
10
280.413763357575
20
5.29903810567667
30
0.0
 70
     32
  0
VERTEX
  8
MY3DLAYER
10
280.103103185795
20
5.06066017177984
30
0.0
 70
     32
  0
VERTEX
  8
MY3DLAYER
10
279.864725251898
20
4.75
30
0.0
 70
     32
  0
VERTEX
  8
MY3DLAYER
10
279.714874618141
20
4.38822856765377
30
0.0
 70
     32
  0
VERTEX
  8
MY3DLAYER
10
279.663763357575
20
3.99999999999999
30
0.0
 70
     32
  0
VERTEX
  8
MY3DLAYER
10
279.714874618141
20
3.61177143234621
30
0.0
 70
     32
  0
VERTEX
  8
MY3DLAYER
10
279.864725251898
20
3.24999999999998
30
0.0
 70
     32
  0
VERTEX
  8
MY3DLAYER
10
280.103103185795
20
2.93933982822017
30
0.0
 70
     32
  0
VERTEX
  8
MY3DLAYER
10
280.413763357575
20
2.70096189432332
30
0.0
 70
     32
  0
VERTEX
  8
MY3DLAYER
10
280.775534789921
20
2.55111126056637
30
0.0
 70
     32
  0
VERTEX
  8
MY3DLAYER
10
281.163763357575
20
2.49999999999997
30
0.0
 70
     32
  0
VERTEX
  8
MY3DLAYER
10
281.551991925228
20
2.55111126056637
30
0.0
 70
     32
  0
VERTEX
  8
MY3DLAYER
10
281.913763357575
20
2.70096189432332
30
0.0
 70
     32
  0
VERTEX
  8
MY3DLAYER
10
282.224423529355
20
2.93933982822015
30
0.0
 70
     32
  0
VERTEX
  8
MY3DLAYER
10
282.462801463251
20
3.24999999999998
30
0.0
 70
     32
  0
VERTEX
  8
MY3DLAYER
10
282.612652097008
20
3.61177143234621
30
0.0
 70
     32
  0
VERTEX
  8
MY3DLAYER
10
282.663763357575
20
3.99999999999999
30
0.0
 70
     32
  0
SEQEND
  0
POLYLINE
 8
Layer0
 66
     1
70
    8
 10
0.0
 20
 0.0
 30
0.0
  0
VERTEX
  8
MY3DLAYER
10
327.612652097008
20
4.38822856765377
30
0.0
 70
     32
  0
VERTEX
  8
MY3DLAYER
10
327.462801463251
20
4.75
30
0.0
 70
     32
  0
VERTEX
  8
MY3DLAYER
10
327.224423529354
20
5.06066017177982
30
0.0
 70
     32
  0
VERTEX
  8
MY3DLAYER
10
326.913763357575
20
5.29903810567667
30
0.0
 70
     32
  0
VERTEX
  8
MY3DLAYER
10
326.551991925228
20
5.44888873943362
30
0.0
 70
     32
  0
VERTEX
  8
MY3DLAYER
10
326.163763357575
20
5.50000000000001
30
0.0
 70
     32
  0
VERTEX
  8
MY3DLAYER
10
325.775534789921
20
5.44888873943362
30
0.0
 70
     32
  0
VERTEX
  8
MY3DLAYER
10
325.413763357575
20
5.29903810567667
30
0.0
 70
     32
  0
VERTEX
  8
MY3DLAYER
10
325.103103185795
20
5.06066017177984
30
0.0
 70
     32
  0
VERTEX
  8
MY3DLAYER
10
324.864725251898
20
4.75
30
0.0
 70
     32
  0
VERTEX
  8
MY3DLAYER
10
324.714874618141
20
4.38822856765377
30
0.0
 70
     32
  0
VERTEX
  8
MY3DLAYER
10
324.663763357575
20
3.99999999999999
30
0.0
 70
     32
  0
VERTEX
  8
MY3DLAYER
10
324.714874618141
20
3.61177143234621
30
0.0
 70
     32
  0
VERTEX
  8
MY3DLAYER
10
324.864725251898
20
3.24999999999998
30
0.0
 70
     32
  0
VERTEX
  8
MY3DLAYER
10
325.103103185795
20
2.93933982822017
30
0.0
 70
     32
  0
VERTEX
  8
MY3DLAYER
10
325.413763357575
20
2.70096189432332
30
0.0
 70
     32
  0
VERTEX
  8
MY3DLAYER
10
325.775534789921
20
2.55111126056637
30
0.0
 70
     32
  0
VERTEX
  8
MY3DLAYER
10
326.163763357575
20
2.49999999999997
30
0.0
 70
     32
  0
VERTEX
  8
MY3DLAYER
10
326.551991925228
20
2.55111126056637
30
0.0
 70
     32
  0
VERTEX
  8
MY3DLAYER
10
326.913763357575
20
2.70096189432332
30
0.0
 70
     32
  0
VERTEX
  8
MY3DLAYER
10
327.224423529354
20
2.93933982822015
30
0.0
 70
     32
  0
VERTEX
  8
MY3DLAYER
10
327.462801463251
20
3.24999999999998
30
0.0
 70
     32
  0
VERTEX
  8
MY3DLAYER
10
327.612652097008
20
3.61177143234621
30
0.0
 70
     32
  0
VERTEX
  8
MY3DLAYER
10
327.663763357575
20
3.99999999999999
30
0.0
 70
     32
  0
VERTEX
  8
MY3DLAYER
10
327.612652097008
20
4.38822856765377
30
0.0
 70
     32
  0
SEQEND
  0
POLYLINE
 8
Layer0
 66
     1
70
    8
 10
0.0
 20
 0.0
 30
0.0
  0
VERTEX
  8
MY3DLAYER
10
138.408259476087
20
80.0000000000001
30
0.0
 70
     32
  0
VERTEX
  8
MY3DLAYER
10
138.408259476087
20
100.0
30
0.0
 70
     32
  0
VERTEX
  8
MY3DLAYER
10
239.408259476087
20
99.9999999999998
30
0.0
 70
     32
  0
VERTEX
  8
MY3DLAYER
10
239.408259476088
20
79.9999999999998
30
0.0
 70
     32
  0
VERTEX
  8
MY3DLAYER
10
138.408259476087
20
80.0000000000001
30
0.0
 70
     32
  0
SEQEND
  0
POLYLINE
 8
Layer0
 66
     1
70
    8
 10
0.0
 20
 0.0
 30
0.0
  0
VERTEX
  8
MY3DLAYER
10
149.908259476087
20
87.7499999999999
30
0.0
 70
     32
  0
VERTEX
  8
MY3DLAYER
10
227.908259476087
20
87.75
30
0.0
 70
     32
  0
VERTEX
  8
MY3DLAYER
10
227.908259476087
20
92.2499999999998
30
0.0
 70
     32
  0
VERTEX
  8
MY3DLAYER
10
149.908259476087
20
92.2499999999999
30
0.0
 70
     32
  0
VERTEX
  8
MY3DLAYER
10
149.908259476087
20
87.7499999999999
30
0.0
 70
     32
  0
SEQEND
 0
ENDSEC
 0
EOF
